<?xml version="1.0"?><svg width="800" height="836" xmlns="http://www.w3.org/2000/svg">
 <g>
  <title>Layer 1</title>
  <path id="svg_2" fill="#000000" fill-rule="evenodd" stroke="#000000" stroke-width="0.5px" d="m627.799988,270l0.200012,0l-0.799988,10c-0.466675,6.666656 -2.700012,25 -6.700012,55c-4,30 -6.56665,53.399994 -7.700012,70.200012c-1.200012,16.866669 -1.799988,25.399994 -1.799988,25.599976l0,0.200012l-0.5,0.200012c-0.333313,0.199982 -0.333313,0.399994 0,0.599976l0.5,0.200012l0.200012,21.5c0.200012,14.333344 0.633301,25 1.299988,32c0.666687,7 1.099976,10.833344 1.299988,11.5l0.200012,1l-12.200012,16c-8.200012,10.666687 -12.399963,16.06665 -12.599976,16.200012l-0.200012,0.299988l-0.200012,0.299988l-0.299988,0.200012l-0.299988,0.200012l-0.200012,0.299988l-0.200012,0.299988l-0.299988,0.200012l-0.299988,0.200012l-0.200012,0.299988l0,0.299988l0,0.200012l-0.5,-0.200012c-0.333313,-0.200012 -3.333313,-0.799988 -9,-1.799988c-5.666687,-1 -14,-1.666687 -25,-2c-11,-0.333313 -20.333313,1.166687 -28,4.5c-7.666687,3.333313 -18.333344,5.5 -32,6.5c-13.666656,1 -23.166656,2.666687 -28.5,5c-5.333344,2.333313 -10.166656,5.5 -14.5,9.5l-6.5,6l-0.200012,0.299988l-0.299988,0.200012l-0.299988,0.200012l-0.200012,0.299988l-0.200012,0.299988l-0.299988,0.200012l-0.299988,0.200012l-0.200012,0.299988l-0.200012,0.299988l-0.299988,0.200012l-0.299988,0.200012l-0.200012,0.299988l-0.200012,0.299988l-0.299988,0.200012l-0.299988,0.200012l-0.200012,0.299988l-0.200012,0.299988l-0.299988,0.200012l-0.299988,0.5l-0.200012,0.5l-0.200012,0l-0.299988,0l-0.299988,0.5l-0.200012,0.5l-0.200012,0l-0.299988,0l-0.299988,2l-0.200012,2l10,-0.200012c6.666656,-0.200012 10.5,-0.133301 11.5,0.200012l1.5,0.5l1,0.5l1,0.5l0.200012,0.299988l0.299988,0.200012l0.299988,0.200012l0.200012,0.299988l0.200012,0.299988l0.299988,0.200012l0.299988,0.200012l0.200012,0.299988l0.200012,0.299988l0.299988,0.200012l0.5,1l0.5,1l0.299988,0.200012l0.200012,0.299988l0.200012,0.299988l0.299988,0.200012l0.299988,1.5l0.200012,1.5l-4.5,0.200012c-3,0.200012 -10,0.133301 -21,-0.200012c-11,-0.333313 -24,-1.599976 -39,-3.799988l-22.5,-3.200012l-0.5,-0.200012c-0.333344,-0.200012 -6.566681,-6.533325 -18.700012,-19c-12.199982,-12.533325 -25.966644,-28.299988 -41.299988,-47.299988c-15.333344,-19 -30.100006,-38.766663 -44.299988,-59.299988c-14.133331,-20.466675 -25.600006,-37.800018 -34.400009,-52l-13.300003,-21.200012l-0.5,-1l-0.5,-1l-0.300003,-0.200012l-0.199997,-0.299988l-0.199997,-0.299988l-0.300003,-0.200012l-0.5,-1l-0.5,-1l-0.300003,-0.200012l-0.199997,-0.299988l0,-0.299988l0,-0.200012l1,0.200012l1,0.299988l1.5,0.5l1.5,0.5l35,10c23.333344,6.666656 44.5,11.833344 63.5,15.5c19,3.666656 38.666656,6.166656 59,7.5c20.333344,1.333344 38.666656,1.166656 55,-0.5c16.333344,-1.666656 34.666656,-6 55,-13c20.333313,-7 34.099976,-12.733337 41.299988,-17.200012c7.133362,-4.533325 13.93335,-9.399994 20.400024,-14.599976c6.533325,-5.133331 13.733337,-11.93335 21.599976,-20.400024c7.799988,-8.533325 17.533325,-21.299988 29.200012,-38.299988c11.666687,-17 17.833313,-26.166656 18.5,-27.5c0.666687,-1.333344 1.099976,-2 1.299988,-2z"/>
  <path id="svg_3" fill="#FEFE01" fill-rule="evenodd" stroke="#FEFE01" stroke-width="0.5px" d="m422.799988,159l0.200012,1l-0.200012,0.5c-0.199982,0.333328 -1.466644,3.166672 -3.799988,8.5c-2.333344,5.333328 -4.933319,9.733337 -7.799988,13.199997l-4.200012,5.300003l-1,0.5l-1,0.5l-1,0.5l-1,0.5l-1,0.5l-1,0.5l-0.200012,0.300003l-0.299988,0.199997l-0.299988,0.199997l-0.200012,0.300003l3,0l3,0l1.5,-0.5l1.5,-0.5l3.5,-1.5c2.333344,-1 3.5,-1.600006 3.5,-1.800003l0,-0.199997l13,-1.800003c8.666656,-1.133331 16.666656,-3.533325 24,-7.199997c7.333344,-3.666672 15.166656,-8 23.5,-13c8.333344,-5 13.833344,-7.833328 16.5,-8.5c2.666656,-0.666672 4.166656,-1.100006 4.5,-1.300003l0.5,-0.199997l0,1c0,0.666672 0.833344,1.066666 2.5,1.199997c1.666656,0.199997 2.833344,0.466675 3.5,0.800003l1,0.5l-1.5,0.5l-1.5,0.5l-1.799988,0.699997c-1.133331,0.53334 -1.93335,1.400009 -2.400024,2.600006c-0.533325,1.133331 -0.466644,1.800003 0.200012,2c0.666656,0.133331 0.399994,1.033325 -0.799988,2.699997c-1.133331,1.666672 -1.600006,2.899994 -1.400024,3.699997c0.133331,0.866669 1.466675,2.066666 4,3.600006c2.466675,1.46666 3.533356,2.533325 3.200012,3.199997c-0.333344,0.666672 0.933319,1.666672 3.799988,3c2.800018,1.333328 4.200012,2.333328 4.200012,3c0,0.666672 0.833344,0.933334 2.5,0.800003c1.666687,-0.199997 3.166687,-0.53334 4.5,-1c1.333313,-0.53334 2,-0.466675 2,0.199997c0,0.666672 1.266663,0.166672 3.799988,-1.5c2.466675,-1.666672 4.133362,-3.5 5,-5.5c0.799988,-2 1.533325,-3 2.200012,-3c0.666687,0 1,0.5 1,1.5c0,1 0.333313,1.5 1,1.5c0.666687,0 1.06665,-0.5 1.200012,-1.5c0.200012,-1 0.399963,-2.833328 0.599976,-5.5l0.200012,-4l1,0.199997l1,0.300003l0.200012,0.300003l0.299988,0.199997l2.700012,2.199997c1.866638,1.53334 8.533325,6.066666 20,13.600006c11.533325,7.46666 19.06665,12.533325 22.599976,15.199997c3.466675,2.666672 5.200012,4.333328 5.200012,5c0,0.666672 2.5,3.266663 7.5,7.800003c5,4.46666 7.56665,6.800003 7.700012,7l0.299988,0.199997l0.299988,0.199997l0.200012,0.300003l0.200012,0.300003l0.299988,0.199997l0.299988,1l0.200012,1l-2,0l-2,0l-0.200012,1l-0.299988,1l-0.5,2.5l-0.5,2.5l-0.299988,0.199997l-0.200012,0.300003l-0.200012,0.300003l-0.299988,0.199997l-0.299988,-0.199997l-0.200012,-0.300003l-1,-0.5l-1,-0.5l-0.200012,-0.300003l-0.299988,-0.199997l-0.5,-2c-0.333313,-1.333328 -1.400024,-2.399994 -3.200012,-3.199997c-1.866638,-0.866669 -3.299988,-2.133331 -4.299988,-3.800003c-1,-1.666672 -3.5,-3.066666 -7.5,-4.199997c-4,-1.199997 -6,-1.466675 -6,-0.800003c0,0.666672 -0.666687,0.833328 -2,0.5l-2,-0.5l0,-1.5l0,-1.5l-2,0l-2,0l0,4l0,4l6.5,0c4.333313,0 7,1.333328 8,4c1,2.666672 2.166687,4 3.5,4c1.333313,0 2,1.333328 2,4c0,2.666672 1.5,4 4.5,4c3,0 4.56665,0.333328 4.700012,1l0.299988,1l0.299988,0.199997l0.200012,0.300003l0.200012,0.300003l0.299988,0.199997l0,4l0,4l-0.299988,0.199997l-0.200012,0.300003l-3.5,0c-2.333313,0 -4.833313,0.100006 -7.5,0.300003l-4,0.199997l0,8l0,8l-3.5,-0.200012c-2.333313,-0.199982 -4.833313,-0.133331 -7.5,0.200012c-2.666687,0.333344 -4.166687,1.733337 -4.5,4.200012c-0.333313,2.533325 -0.833313,3.733307 -1.5,3.599976c-0.666687,-0.199982 -11.333313,0.133331 -32,1c-20.666656,0.800018 -31.066681,2.200012 -31.200012,4.200012c-0.199982,2 -2.733307,2.933319 -7.599976,2.799988c-4.800018,-0.199982 -7.533356,-0.466644 -8.200012,-0.799988c-0.666656,-0.333344 -1.166656,-0.266663 -1.5,0.200012c-0.333344,0.533325 -10.833344,1.133331 -31.5,1.799988c-20.666656,0.666656 -31,2 -31,4c0,2 -4.166656,3 -12.5,3c-8.333344,0 -12.5,0.666656 -12.5,2c0,1.333344 -1,2 -3,2c-2,0 -3,0.666656 -3,2c0,1.333344 -5.333344,2 -16,2c-10.666656,0 -16,1.333344 -16,4c0,2.666656 -2.833344,4 -8.5,4c-5.666656,0 -8.566681,1.166656 -8.700012,3.5c-0.199982,2.333344 -4.399994,3.666656 -12.599976,4c-8.133331,0.333344 -12.200012,1 -12.200012,2c0,1 -1,1.5 -3,1.5c-2,0 -3.166656,0.833344 -3.5,2.5c-0.333344,1.666656 -2,2.5 -5,2.5c-3,0 -4.5,1 -4.5,3c0,2 -1,3 -3,3c-2,0 -3.166656,2.833344 -3.5,8.5c-0.333344,5.666656 -10.166656,8.666656 -29.5,9l-29,0.5l-0.199997,-7c-0.199997,-4.666656 -0.400009,-7.333344 -0.600006,-8c-0.133331,-0.666656 -2.699997,-1 -7.699997,-1l-7.5,0l0,-6l0,-6l2.5,-0.200012c1.666672,-0.199982 2.666672,-1.533325 3,-4c0.333328,-2.533325 2,-3.799988 5,-3.799988c3,0 4.5,-3.333344 4.5,-10l0,-10l-3,0.200012c-2,0.199982 -3.266663,0.733307 -3.800003,1.599976c-0.46666,0.800018 -0.800003,0.366669 -1,-1.299988c-0.133331,-1.666656 -0.533325,-2.433319 -1.199997,-2.299988l-1,0.299988l-1,0.299988l-1,0.200012l0.199997,-1c0.199997,-0.666656 0.966675,-2.5 2.300003,-5.5c1.333328,-3 1.766663,-5.100006 1.300003,-6.299988l-0.800003,-1.700012l-1.5,-0.5l-1.5,-0.5l0.199997,-0.299988l0.300003,-0.200012l0.300003,-0.200012l0.199997,-0.299988l0.199997,-0.299988l0.300003,-0.200012l0.300003,-1l0.199997,-1l-2,0.200012c-1.333328,0.199982 -3.333328,0.966644 -6,2.299988c-2.666672,1.333344 -6.333328,2.166656 -11,2.5l-7,0.5l-0.199997,-0.299988l-0.300003,-0.200012l-0.300003,0.200012l-0.199997,0.299988l-1,0.299988l-1,0.200012l0,-1.5l0,-1.5l1,-0.200012l1,-0.299988l0.199997,-0.299988l0.300003,-0.200012l0.300003,-0.200012l0.199997,-0.299988l0.199997,-0.299988l0.300003,-0.200012l0.300003,0.200012l0.199997,0.299988l3,-1c2,-0.666656 4.066666,-1.433319 6.199997,-2.299988c2.199997,-0.800018 4.733337,-2.033356 7.600006,-3.700012c2.800003,-1.666656 4.199997,-2.833344 4.199997,-3.5c0,-0.666656 0.833328,-1.333328 2.5,-2c1.666672,-0.666672 2.5,-1.333328 2.5,-2c0,-0.666672 1.833328,-1.933334 5.5,-3.800003c3.666672,-1.800003 5.766663,-2.800003 6.300003,-3c0.46666,-0.133331 0.800003,-0.266663 1,-0.399994l0.199997,-0.300003l0.199997,-0.300003l0.300003,-0.199997l0.300003,-0.199997l0.199997,-0.300003l0.199997,-0.300003l0.300003,-0.199997l0.300003,-0.199997l0.199997,-0.300003l0.199997,-0.300003l0.300003,-0.199997l0.300003,-0.199997l0.199997,-0.300003l1,-0.5l1,-0.5l1.5,-0.300003l1.5,-0.199997l-0.199997,0.5l-0.300003,0.5l-0.300003,0.199997l-0.199997,0.300003l-0.199997,0.300003l-0.300003,0.199997l-0.5,1l-0.5,1l-0.300003,0.199997l-0.199997,0.300003l-0.199997,0.300003l-0.300003,0.199997l-1.5,2.5c-1,1.666672 -1.666672,3.166672 -2,4.5l-0.5,2l-0.300003,2l-0.199997,2l1,0l1,0l0.199997,1l0.300003,1l0.300003,0.200012l0.199997,0.299988l0.199997,0.299988l0.300003,0.200012l0.300003,0.200012l0.199997,0.299988l2,1c1.333328,0.666656 4.833328,0.833344 10.5,0.5c5.666656,-0.333344 10.766663,-1.933319 15.299988,-4.799988c4.466675,-2.800018 7.533356,-5.366684 9.200012,-7.700012c1.666656,-2.333328 2.399994,-5.166672 2.200012,-8.5c-0.133331,-3.333328 -1.033356,-5.399994 -2.700012,-6.199997c-1.666656,-0.866669 -2.833344,-1.466675 -3.5,-1.800003l-1,-0.5l-1.5,-0.300003l-1.5,-0.199997l0,-1l0,-1l23.5,-2.800003c15.666656,-1.800003 26.899994,-4.133331 33.700012,-7c6.866669,-2.800003 10.799988,-4.866669 11.799988,-6.199997c1,-1.333328 1.600006,-2.166672 1.799988,-2.5l0.200012,-0.5l0.200012,0c0.199982,0 0.399994,-0.166672 0.599976,-0.5l0.200012,-0.5l0.200012,0c0.199982,0 0.399994,0.066666 0.599976,0.199997l0.200012,0.300003l0.200012,0.300003l0.299988,0.199997l0.299988,-0.199997l0.200012,-0.300003l1.5,-0.5l1.5,-0.5l1.5,-0.5l1.5,-0.5l1,-0.5l1,-0.5l-2.5,0l-2.5,0l-3.5,0c-2.333344,0 -4.333344,-0.166672 -6,-0.5c-1.666656,-0.333328 -4.766663,-1.733337 -9.299988,-4.199997c-4.466675,-2.53334 -10.93335,-5.400009 -19.400024,-8.600006c-8.533325,-3.133331 -18.133331,-5.266663 -28.799988,-6.399994l-16,-1.800003l0,-0.199997l0,-0.300003l-1.5,-0.5l-1.5,-0.5l1,-0.5l1,-0.5l1.5,-0.5l1.5,-0.5l0.200012,-0.300003l0.299988,-0.199997l0.299988,-0.199997l0.200012,-0.300003l4.200012,-1.699997c2.866669,-1.199997 4.866669,-2.133331 6,-2.800003c1.199982,-0.666672 1.633331,-1.399994 1.299988,-2.199997c-0.333344,-0.866669 4.100006,-3.733337 13.299988,-8.600006c9.133331,-4.800003 13.93335,-7.599991 14.400024,-8.399994c0.533325,-0.866669 1.733307,-1.066666 3.599976,-0.600006c1.800018,0.53334 2.800018,0.633331 3,0.300003l0.200012,-0.5l0.200012,0l0.299988,0l0.5,1l0.5,1l2,4c1.333344,2.666672 2.5,4.5 3.5,5.5c1,1 2.333344,3.166672 4,6.5c1.666656,3.333328 3,5.166672 4,5.5c1,0.333328 1.733337,0.899994 2.200012,1.699997c0.533325,0.866669 1.133331,1.300003 1.799988,1.300003c0.666656,0 1.333344,-0.100006 2,-0.300003l1,-0.199997l0.200012,1l0.299988,1l0.299988,-0.199997l0.200012,-0.300003l0.200012,-0.300003l0.299988,-0.199997l0.299988,0.199997l0.200012,0.300003l0.200012,0.300003l0.299988,0.199997l0.299988,-0.199997l0.200012,-0.300003l1,-0.5l1,-0.5l0.200012,-0.300003l0.299988,-0.199997l-0.299988,-1.5c-0.133331,-1 0.299988,-1.5 1.299988,-1.5c1,0 1.233337,-1.333328 0.700012,-4c-0.466675,-2.666672 -0.133331,-5.399994 1,-8.199997c1.199982,-2.866669 6.799988,-5.800003 16.799988,-8.800003c10,-3 16.066681,-4.266663 18.200012,-3.800003c2.199982,0.53334 3.799988,1.633331 4.799988,3.300003c1,1.666672 1.666656,2.333328 2,2c0.333344,-0.333328 0.733337,-0.100006 1.200012,0.699997c0.533325,0.866669 1.533325,1.53334 3,2c1.533325,0.53334 2.199982,0.866669 2,1c-0.133331,0.199997 0.466644,0.400009 1.799988,0.600006l2,0.199997l0,-1c0,-0.666672 0.833344,-1.166672 2.5,-1.5c1.666656,-0.333328 2.899994,-1.833328 3.700012,-4.5c0.866669,-2.666672 1.399994,-4.666672 1.599976,-6c0.133331,-1.333328 2.366669,-1.733337 6.700012,-1.199997c4.333344,0.46666 7.166656,0.866669 8.5,1.199997c1.333344,0.333328 2.266663,1.066666 2.799988,2.199997c0.466675,1.199997 0.800018,2.133331 1,2.800003zm95.400024,26.800003c-0.133362,-0.199997 -0.133362,-0.400009 0,-0.600006c0.200012,-0.133331 0.299988,-0.033325 0.299988,0.300003c0,0.333328 -0.099976,0.433334 -0.299988,0.300003zm-23,89.999985c-0.133331,-0.199982 -0.133331,-0.399994 0,-0.599976c0.199982,-0.133331 0.299988,-0.033356 0.299988,0.299988c0,0.333344 -0.100006,0.433319 -0.299988,0.299988z"/>
  <path id="svg_4" fill="#F98C0E" fill-rule="evenodd" stroke="#F98C0E" stroke-width="0.5px" d="m162.199997,755.799988l-0.199997,-0.299988l-0.199997,-0.299988l-0.300003,-0.200012l-0.300003,-0.200012l-0.199997,-0.299988l-1,-0.5l-1,-0.5l0,-0.299988l0,-0.200012l1,-0.200012l1,-0.299988l-0.199997,-0.299988l-0.300003,-0.200012l-0.300003,-0.200012l-0.199997,-0.299988l1.5,-0.5l1.5,-0.5l0.199997,-0.299988l0.300003,-0.200012l0.300003,0.200012l0.199997,0.299988l1.5,0.299988l1.5,0.200012l-0.199997,-1l-0.300003,-1l-0.5,-2l-0.5,-2l-0.300003,-0.200012l-0.199997,-0.299988l-0.199997,-0.299988l-0.300003,-0.200012l-0.300003,-0.200012l-0.199997,-0.299988l-0.199997,-0.299988l-0.300003,-0.200012l-0.300003,-0.200012l-0.199997,-0.299988l-0.199997,-0.299988l-0.300003,-0.200012l-0.300003,-1l-0.199997,-1l0.199997,0l0.300003,0l0.300003,0.200012l0.199997,0.299988l0.199997,0.299988l0.300003,0.200012l0.300003,0.200012l0.199997,0.299988l0.199997,0.299988l0.300003,0.200012l0.300003,0.200012l0.199997,0.299988l0.199997,0.299988l0.300003,0.200012l0.300003,0.200012l0.199997,0.299988l0.199997,0.299988l0.300003,0.200012l0.300003,0.200012l0.199997,0.299988l0.199997,0.299988l0.300003,0.200012l0.300003,0.200012l0.199997,0.299988l1,0.5c0.666672,0.333313 6.333328,4 17,11c10.666672,7 24,14.5 40,22.5c16,8 28.666687,13.666687 38,17c9.333344,3.333313 22.666656,7.166687 40,11.5c17.333344,4.333313 30,7 38,8c8,1 21,1.833313 39,2.5c18,0.666687 34.333344,0.5 49,-0.5c14.666656,-1 25.666656,-2.333313 33,-4c7.333344,-1.666687 20.5,-5.166687 39.5,-10.5c19,-5.333313 36.333313,-11.666687 52,-19c15.666687,-7.333313 31.166687,-16 46.5,-26c15.333313,-10 28.93335,-20.233337 40.799988,-30.700012c11.799988,-10.533325 24.133362,-23.06665 37,-37.599976c12.799988,-14.466675 21.866699,-25.700012 27.200012,-33.700012c5.333313,-8 10.93335,-16.900024 16.799988,-26.700012c5.799988,-9.866638 11.366699,-20.633301 16.700012,-32.299988c5.333313,-11.666687 10.833313,-27.5 16.5,-47.5c5.666687,-20 9.666687,-36.5 12,-49.5c2.333313,-13 3.5,-32.166656 3.5,-57.5c0,-25.333344 -1.333313,-45.333344 -4,-60c-2.666687,-14.666656 -6,-29.166656 -10,-43.5c-4,-14.333344 -8.666687,-28 -14,-41c-5.333313,-13 -12,-26.5 -20,-40.5c-8,-14 -15.5,-25.666672 -22.5,-35c-7,-9.333328 -11.266663,-14.666672 -12.799988,-16c-1.466675,-1.333328 -5.266663,-5.666672 -11.400024,-13c-6.200012,-7.333328 -14.733337,-15.833328 -25.599976,-25.5c-10.799988,-9.666672 -16.200012,-14.833328 -16.200012,-15.5c0,-0.666672 -3.166687,-3.266663 -9.5,-7.800003c-6.333313,-4.46666 -10.833313,-6.933334 -13.5,-7.399994c-2.666687,-0.53334 -4,-1.133331 -4,-1.800003c0,-0.666672 -0.333313,-1 -1,-1c-0.666687,0 -1.166687,-0.399994 -1.5,-1.199997l-0.5,-1.300003l-0.200012,-0.300003l-0.299988,-0.199997l-0.299988,-0.199997l-0.200012,-0.300003l-1.5,0l-1.5,0l-1,0l-1,0l-1.5,0l-1.5,0l0.200012,0.300003l0.299988,0.199997l0.299988,1.5c0.133362,1 0.533325,1.566666 1.200012,1.699997l1,0.300003l0.200012,0.300003l0.299988,0.199997l0.299988,1l0.200012,1l-1,-0.199997l-1,-0.300003l-0.200012,-0.300003l-0.299988,-0.199997l-0.299988,-0.199997l-0.200012,-0.300003l-0.200012,-0.300003l-0.299988,-0.199997l-0.299988,-0.199997l-0.200012,-0.300003l-0.200012,-0.300003l-0.299988,-0.199997l-0.299988,-0.199997c-0.133362,-0.199997 -1.266663,-1.066666 -3.400024,-2.600006c-2.200012,-1.46666 -6.533325,-3.866669 -13,-7.199997l-9.799988,-5l-0.200012,-0.5c-0.200012,-0.333344 -0.399963,-0.5 -0.599976,-0.5l-0.200012,0l-0.200012,-0.5c-0.200012,-0.333344 -0.399963,-0.833344 -0.599976,-1.5c-0.133362,-0.666656 0.133301,-1 0.799988,-1c0.666687,0 1,-1 1,-3c0,-2 -0.5,-3 -1.5,-3c-1,0 -1.56665,-0.333344 -1.700012,-1c-0.200012,-0.666656 -2.866638,-2.400002 -8,-5.199997c-5.200012,-2.866676 -12.466675,-6.133347 -21.799988,-9.800003c-9.333313,-3.666656 -23.166687,-8 -41.5,-13c-18.333344,-5 -35.166656,-8.666656 -50.5,-11c-15.333344,-2.333344 -34.833344,-3.166656 -58.5,-2.5c-23.666656,0.666656 -41.5,2.166656 -53.5,4.5c-12,2.333344 -26.833344,6 -44.5,11c-17.666656,5 -32.666687,10.333344 -45,16c-12.333328,5.666656 -25.666672,12.5 -40,20.5c-14.333328,8 -25.899994,15.566666 -34.699997,22.699997l-13.300003,10.800003l-0.300003,0.199997l-0.199997,0.300003l-0.199997,0.300003l-0.300003,0.199997l-0.5,1l-0.5,1l-0.300003,0.199997l-0.199997,0.300003l-1,0.300003l-1,0.199997l0.199997,-1l0.300003,-1l0.300003,-0.199997l0.199997,-0.300003l0.199997,-0.300003l0.300003,-0.199997l0.300003,-0.199997l0.199997,-0.300003l0.199997,-0.300003l0.300003,-0.199997l0.300003,-0.199997l0.199997,-0.300003l0.199997,-0.300003l0.300003,-0.199997l0.300003,-0.199997c0.133331,-0.199997 0.266663,-0.400009 0.399994,-0.600006l0.300003,-0.199997l0.300003,-0.199997l0.199997,-0.300003l-1,0l-1,0l-0.199997,0.300003c-0.199997,0.133331 -0.733337,0.366669 -1.600006,0.699997c-0.800003,0.333328 -1.199997,0 -1.199997,-1c0,-1 -0.5,-1.5 -1.5,-1.5l-1.5,0l0.199997,-1l0.300003,-1l0.300003,-0.199997l0.199997,-0.300003l0.199997,-0.300003c0.199997,-0.133331 0.53334,-1.033325 1,-2.699997l0.800003,-2.5l12,-9.199997c8,-6.200005 21.666672,-14.800003 41,-25.800003c19.333328,-11 38.166672,-20 56.5,-27c18.333344,-7 36.5,-12.5 54.5,-16.5c18,-4 33.666656,-6.666672 47,-8c13.333344,-1.333328 28,-1.833328 44,-1.5c16,0.333328 31,1.333328 45,3c14,1.666672 29.333344,4.5 46,8.5c16.666687,4 33.166687,9.166656 49.5,15.5c16.333313,6.333344 34.166687,15 53.5,26c19.333313,11 34.06665,20.400002 44.200012,28.199997c10.200012,7.866669 19.733337,15.866669 28.599976,24c8.799988,8.199997 16.600037,16.066666 23.400024,23.600006c6.866638,7.46666 15.466675,18.033325 25.799988,31.699997c10.333313,13.666672 20,28.666672 29,45c9,16.333344 16.833313,33.666656 23.5,52c6.666687,18.333344 12,37.166656 16,56.5c4,19.333344 6.333313,32.833344 7,40.5c0.666687,7.666656 0.833313,22 0.5,43c-0.333313,21 -1.833313,39.166656 -4.5,54.5c-2.666687,15.333313 -6.166687,30.5 -10.5,45.5c-4.333313,15 -9.400024,29.43335 -15.200012,43.299988c-5.866638,13.799988 -13.799988,29.200012 -23.799988,46.200012c-10,17 -19.93335,31.599976 -29.799988,43.799988c-9.799988,12.133362 -21.133362,24.466675 -34,37c-12.799988,12.466675 -24.700012,22.866699 -35.700012,31.200012c-11,8.333313 -23,16.5 -36,24.5c-13,8 -28.666687,16 -47,24c-18.333313,8 -36.666687,14.5 -55,19.5c-18.333344,5 -36.166656,8.5 -53.5,10.5c-17.333344,2 -37,2.833313 -59,2.5c-22,-0.333313 -41,-1.833313 -57,-4.5c-16,-2.666687 -32.5,-6.5 -49.5,-11.5c-17,-5 -34.333313,-11.5 -52,-19.5c-17.666672,-8 -32.333328,-15.666687 -44,-23c-11.666672,-7.333313 -19.233337,-12.233337 -22.699997,-14.700012c-3.53334,-2.533325 -5.400009,-3.866638 -5.600006,-4zm408.000015,-638.999985c-0.133362,-0.200005 -0.133362,-0.400002 0,-0.600006c0.200012,-0.133324 0.299988,-0.03334 0.299988,0.300003c0,0.333344 -0.099976,0.433327 -0.299988,0.300003zm39,18c-0.133362,-0.199997 -0.133362,-0.400009 0,-0.600006c0.200012,-0.133331 0.299988,-0.033325 0.299988,0.300003c0,0.333328 -0.099976,0.433334 -0.299988,0.300003zm-457.000015,14c-0.133331,-0.199997 -0.133331,-0.400009 0,-0.600006c0.199997,-0.133331 0.300003,-0.033325 0.300003,0.300003c0,0.333328 -0.100006,0.433334 -0.300003,0.300003z"/>
  <path id="svg_5" fill="#FED000" fill-rule="evenodd" stroke="#FED000" stroke-width="0.5px" d="m569,119l0,1l-1,-0.199997c-0.666687,-0.200005 -5.5,-1.633347 -14.5,-4.300003c-9,-2.666656 -20.5,-4.166656 -34.5,-4.5c-14,-0.333344 -24.5,0.5 -31.5,2.5c-7,2 -14.166656,4.833344 -21.5,8.5c-7.333344,3.666656 -14,8 -20,13c-6,5 -11.066681,10.066666 -15.200012,15.199997l-6.299988,7.800003l-0.5,1l-0.5,1l-0.299988,0l-0.200012,0l-0.200012,-1c-0.199982,-0.666672 -0.533325,-1.600006 -1,-2.800003c-0.533325,-1.133331 -1.466644,-1.866669 -2.799988,-2.199997c-1.333344,-0.333328 -4.166656,-0.733337 -8.5,-1.199997c-4.333344,-0.53334 -6.566681,-0.133331 -6.700012,1.199997c-0.199982,1.333328 -0.733307,3.333328 -1.599976,6c-0.800018,2.666672 -2.033356,4.166672 -3.700012,4.5c-1.666656,0.333328 -2.5,0.833328 -2.5,1.5l0,1l-2,-0.199997c-1.333344,-0.199997 -1.933319,-0.400009 -1.799988,-0.600006c0.199982,-0.133331 -0.466675,-0.46666 -2,-1c-1.466675,-0.46666 -2.466675,-1.133331 -3,-2c-0.466675,-0.800003 -0.866669,-1.033325 -1.200012,-0.699997c-0.333344,0.333328 -1.066681,-0.433334 -2.200012,-2.300003c-1.199982,-1.800003 -3.799988,-2.699997 -7.799988,-2.699997c-4,0 -10.066681,1.433334 -18.200012,4.300003c-8.199982,2.800003 -12.799988,5.699997 -13.799988,8.699997c-1,3 -1.5,6 -1.5,9l0,4.5l-0.299988,0.199997l-0.200012,0.300003l-0.200012,0.300003l-0.299988,0.199997l-0.299988,1.5l-0.200012,1.5l-1,-0.199997l-1,-0.300003l-0.200012,-0.300003l-0.299988,-0.199997l-0.299988,-0.199997l-0.200012,-0.300003l-0.200012,-0.300003l-0.299988,-0.199997l-0.299988,0.199997l-0.200012,0.300003l-0.200012,0.300003l-0.299988,0.199997l-0.299988,-1l-0.200012,-1l-1,0.199997c-0.666656,0.199997 -1.333344,0.300003 -2,0.300003c-0.666656,0 -1.266663,-0.433334 -1.799988,-1.300003c-0.466675,-0.800003 -1.200012,-1.366669 -2.200012,-1.699997c-1,-0.333328 -2.333344,-2.166672 -4,-5.5c-1.666656,-3.333328 -3,-5.5 -4,-6.5c-1,-1 -2.166656,-2.833328 -3.5,-5.5l-2,-4l-0.5,-1l-0.5,-1l-0.299988,0l-0.200012,0l-0.200012,-0.5l-0.299988,-0.5l-0.299988,-0.199997l-0.200012,-0.300003l1.5,0l1.5,0l1,1c0.666656,0.666672 1.333344,1 2,1l1,0l1,0l1,0l0.200012,0.300003l0.299988,0.199997l0,-1l0,-1l-0.5,-1l-0.5,-1l-0.299988,-0.199997l-0.200012,-0.300003l-0.200012,-0.300003l-0.299988,-0.199997l-5.5,-8c-3.666656,-5.333328 -8.066681,-10.066666 -13.200012,-14.199997c-5.199982,-4.199997 -11.799988,-6.066673 -19.799988,-5.600006c-8,0.533333 -11.833344,0.066673 -11.5,-1.399994c0.333344,-1.533333 0,-2.46666 -1,-2.800003c-1,-0.333344 -3.5,-0.166656 -7.5,0.5c-4,0.666656 -11.399994,4.099998 -22.199997,10.300003c-10.866669,6.133331 -21.800003,13.199997 -32.800003,21.199997c-11,8 -21.666672,16.666672 -32,26c-10.333328,9.333328 -19.333328,18.5 -27,27.5c-7.666672,9 -14.833328,18.5 -21.5,28.5c-6.666656,10 -12.666656,19.666656 -18,29c-5.333344,9.333344 -10.833344,21.666656 -16.5,37c-5.666656,15.333344 -10.333344,31.5 -14,48.5c-3.666656,17 -6,30.333344 -7,40c-1,9.666656 -1.333344,21.166656 -1,34.5c0.333344,13.333344 1.5,27.166656 3.5,41.5c2,14.333344 6.5,32 13.5,53c7,21 13.73333,37.43335 20.199997,49.299988c6.533333,11.799988 13.300003,22.700012 20.300003,32.700012c7,10 12,17.099976 15,21.299988c3,4.133362 5.766663,7.366699 8.300003,9.700012c2.46666,2.333313 7.133331,7.099976 14,14.299988c6.800003,7.133362 16.366669,15.366699 28.699997,24.700012c12.333328,9.333313 21.666672,16 28,20c6.333328,4 12.5,7.833313 18.5,11.5c6,3.666687 15.166672,8.166687 27.5,13.5c12.333344,5.333313 23.666656,9.833313 34,13.5c10.333344,3.666687 24.833344,7.166687 43.5,10.5c18.666656,3.333313 40,4.833313 64,4.5c24,-0.333313 44.666656,-2.333313 62,-6c17.333344,-3.666687 31.333344,-7.5 42,-11.5c10.666687,-4 25,-10.5 43,-19.5c18,-9 33.5,-18.166687 46.5,-27.5c13,-9.333313 20.833313,-14.900024 23.5,-16.700012c2.666687,-1.866638 5,-4.06665 7,-6.599976c2,-2.466675 8.266663,-9.133362 18.799988,-20c10.466675,-10.799988 19.200012,-21.366699 26.200012,-31.700012c7,-10.333313 13.166687,-20.166687 18.5,-29.5c5.333313,-9.333313 11,-21.5 17,-36.5c6,-15 10.333313,-27 13,-36c2.666687,-9 5.166687,-20.5 7.5,-34.5c2.333313,-14 3.5,-31.833344 3.5,-53.5c0,-21.666656 -1.333313,-40 -4,-55c-2.666687,-15 -6.5,-30 -11.5,-45c-5,-15 -11.333313,-30.166656 -19,-45.5c-7.666687,-15.333328 -13.666687,-26.5 -18,-33.5c-4.333313,-7 -6.733337,-11.899994 -7.200012,-14.699997c-0.533325,-2.866669 -0.866638,-4.400009 -1,-4.600006c-0.200012,-0.133331 -0.399963,-0.266663 -0.599976,-0.399994l-0.200012,-0.300003l-0.200012,-0.300003l-0.299988,-0.199997l-0.299988,-0.199997l-0.200012,-0.300003l-0.200012,-0.300003l-0.299988,-0.199997l-0.299988,-0.199997l-0.200012,-0.300003l-1,-0.5l-1,-0.5l-0.200012,-0.300003l-0.299988,-0.199997l-0.299988,-0.199997c-0.133362,-0.199997 -0.366699,-0.400009 -0.700012,-0.600006l-0.5,-0.199997l-0.200012,-0.5c-0.200012,-0.333328 -0.399963,-0.5 -0.599976,-0.5l-0.200012,0l-0.200012,-0.5c-0.200012,-0.333328 -2.533325,-2.433334 -7,-6.300003c-4.533325,-3.800003 -10.133301,-7.033325 -16.799988,-9.699997c-6.666687,-2.666672 -9.333313,-4.5 -8,-5.5c1.333313,-1 1.666687,-1.600006 1,-1.800003l-1,-0.199997l0,-0.199997l0,-0.300003l-1,-0.5l-1,-0.5l-1,-0.5l-1,-0.5l0.200012,-0.300003l0.299988,-0.199997l0.299988,-0.199997l0.200012,-0.300003l-1,-0.5l-1,-0.5l-0.200012,-0.300003l-0.299988,-0.199997l-0.299988,-0.199997c-0.133362,-0.199997 -0.866699,-0.800003 -2.200012,-1.800003c-1.333313,-1 -3.333313,-3.066666 -6,-6.199997c-2.666687,-3.199997 -4.333313,-4.866669 -5,-5c-0.666687,-0.199997 -1.833313,-1.400009 -3.5,-3.600006c-1.666687,-2.133331 -2.833313,-3.199997 -3.5,-3.199997c-0.666687,0 -1,-0.333328 -1,-1c0,-0.666672 -0.333313,-1.066666 -1,-1.199997l-1,-0.300003l-0.200012,-0.300003l-0.299988,-0.199997l-0.5,-1l-0.5,-1l-0.299988,-1.5l-0.200012,-1.5l-1,0l-1,0l0,-1l0,-1l1,0.199997l1,0.300003l0.200012,0.300003l0.299988,0.199997l0.299988,0.199997l0.200012,0.300003l1,0.5c0.666687,0.333328 1.5,0.666672 2.5,1l1.5,0.5l1,0.5l1,0.5l1,0.5l1,0.5l1,0l1,0l-0.200012,-0.300003l-0.299988,-0.199997l-0.299988,-0.199997l-0.200012,-0.300003l-0.200012,-0.300003l-0.299988,-0.199997l-0.5,-1l-0.5,-1l-0.299988,-0.199997l-0.200012,-0.300003l-0.200012,-0.300003l-0.299988,-0.199997l-0.299988,-0.199997l-0.200012,-0.300003l-0.200012,-0.300003l-0.299988,-0.199997l-0.299988,-0.199997l-0.200012,-0.300003l-0.200012,-0.300003l-0.299988,-0.199997l-0.5,-1c-0.333313,-0.666672 -2.333313,-3 -6,-7l-5.5,-6l-0.299988,0l-0.200012,0l-0.200012,-0.5l-0.299988,-0.5l-0.299988,0l-0.200012,0l-0.200012,-0.5l-0.299988,-0.5l-0.299988,0l-0.200012,0l-0.200012,-0.5l-0.299988,-0.5l-0.5,-1.5l-0.5,-1.5l-0.299988,-0.199997l-0.200012,-0.300003l1.5,0l1.5,0l1,0l1,0l1.5,0l1.5,0l0.200012,0.300003l0.299988,0.199997l0.299988,0.199997l0.200012,0.300003l0.5,1.300003c0.333313,0.800003 1.099976,1.033325 2.299988,0.699997c1.133362,-0.333328 1.799988,-0.166672 2,0.5c0.133362,0.666672 1.700012,1.733337 4.700012,3.199997c3,1.53334 7.166687,4.199997 12.5,8c5.333313,3.866669 8,6.133331 8,6.800003c0,0.666672 5.400024,5.833328 16.200012,15.5c10.866638,9.666672 19.399963,18.166672 25.599976,25.5c6.133362,7.333328 9.93335,11.666672 11.400024,13c1.533325,1.333328 5.799988,6.666672 12.799988,16c7,9.333328 14.5,21 22.5,35c8,14 14.666687,27.5 20,40.5c5.333313,13 10,26.666656 14,41c4,14.333344 7.333313,28.833344 10,43.5c2.666687,14.666656 4,34.666656 4,60c0,25.333344 -1.166687,44.5 -3.5,57.5c-2.333313,13 -6.333313,29.5 -12,49.5c-5.666687,20 -11.166687,35.833313 -16.5,47.5c-5.333313,11.666687 -10.900024,22.43335 -16.700012,32.299988c-5.866638,9.799988 -11.466675,18.700012 -16.799988,26.700012c-5.333313,8 -14.400024,19.233337 -27.200012,33.700012c-12.866638,14.533325 -25.200012,27.06665 -37,37.599976c-11.866638,10.466675 -25.466675,20.700012 -40.799988,30.700012c-15.333313,10 -30.833313,18.666687 -46.5,26c-15.666687,7.333313 -33,13.666687 -52,19c-19,5.333313 -32.166656,8.833313 -39.5,10.5c-7.333344,1.666687 -18.333344,3 -33,4c-14.666656,1 -31,1.166687 -49,0.5c-18,-0.666687 -31,-1.5 -39,-2.5c-8,-1 -20.666656,-3.666687 -38,-8c-17.333344,-4.333313 -30.666656,-8.166687 -40,-11.5c-9.333328,-3.333313 -22,-9 -38,-17c-16,-8 -29.333328,-15.5 -40,-22.5c-10.666672,-7 -16.333328,-10.666687 -17,-11l-1,-0.5l-0.199997,-0.299988l-0.300003,-0.200012l-0.300003,-0.200012l-0.199997,-0.299988l-0.199997,-0.299988l-0.300003,-0.200012l-0.300003,-0.200012l-0.199997,-0.299988l-0.199997,-0.299988l-0.300003,-0.200012l-0.300003,-0.200012l-0.199997,-0.299988l-0.199997,-0.299988l-0.300003,-0.200012l-0.300003,-0.200012l-0.199997,-0.299988l-0.199997,-0.299988l-0.300003,-0.200012l-0.300003,-0.200012l-0.199997,-0.299988l-0.199997,-0.299988l-0.300003,-0.200012l-0.300003,0l-0.199997,0l-0.199997,-0.5c-0.199997,-0.333313 -3.066666,-2.766663 -8.600006,-7.299988c-5.46666,-4.466675 -14.033325,-12.533325 -25.699997,-24.200012c-11.666656,-11.666687 -22.333344,-23.833313 -32,-36.5c-9.666656,-12.666687 -18.433327,-25.56665 -26.300003,-38.700012c-7.799995,-13.200012 -15.033325,-27.966675 -21.699997,-44.299988c-6.666672,-16.333313 -11.833328,-30.666687 -15.5,-43c-3.66667,-12.333313 -6.66667,-26.166687 -9,-41.5c-2.33333,-15.333344 -3.66667,-28 -4,-38c-0.33333,-10 0,-20.5 1,-31.5c1,-11 2.33333,-20.833344 4,-29.5c1.66667,-8.666656 3.5,-19.666656 5.5,-33c2,-13.333344 3.833328,-23.333344 5.5,-30c1.666672,-6.666656 2.833328,-12.5 3.5,-17.5c0.666672,-5 2.5,-11.5 5.5,-19.5c3,-8 8.166672,-19.333344 15.5,-34c7.333344,-14.666656 17.333344,-30.666672 30,-48c12.666656,-17.333328 25.900002,-32.666672 39.699997,-46l20.800003,-20l0.5,-0.199997c0.333328,-0.199997 0.5,-0.400009 0.5,-0.600006l0,-0.199997l0.5,-0.199997c0.333328,-0.199997 0.5,-0.400009 0.5,-0.600006l0,-0.199997l0.5,-0.199997c0.333328,-0.199997 0.566666,-0.400009 0.699997,-0.600006l0.300003,-0.199997l0.300003,-0.199997l0.199997,-0.300003l0.199997,-0.300003l0.300003,-0.199997l13.300003,-10.800003c8.800003,-7.133331 20.366669,-14.699997 34.699997,-22.699997c14.333328,-8 27.666672,-14.833344 40,-20.5c12.333328,-5.666656 27.333344,-11 45,-16c17.666656,-5 32.5,-8.666656 44.5,-11c12,-2.333344 29.833344,-3.833344 53.5,-4.5c23.666656,-0.666656 43.166656,0.166656 58.5,2.5c15.333344,2.333344 32.166656,6 50.5,11c18.333313,5 32.166687,9.333344 41.5,13c9.333313,3.666656 16.599976,6.933327 21.799988,9.800003c5.133362,2.799995 7.799988,4.53334 8,5.199997c0.133362,0.666656 0.700012,1 1.700012,1c1,0 1.333313,0.666656 1,2c-0.333313,1.333344 0,2 1,2c1,0 1.333313,0.400002 1,1.199997c-0.333313,0.866676 -1,1.200005 -2,1c-1,-0.133324 -1.5,0.133347 -1.5,0.800003c0,0.666656 0.333313,1 1,1c0.666687,0 1,0.333344 1,1z"/>
  <path id="svg_6" fill="#FEFEFE" fill-rule="evenodd" stroke="#FEFEFE" stroke-width="0.5px" d="m630.799988,256.799988l0.200012,-0.299988l0.200012,-0.299988l0.299988,-0.200012l0,1l0,1l-0.5,2l-0.5,2l-1,3c-0.666687,2 -1.099976,3.333344 -1.299988,4l-0.200012,1l-0.200012,0c-0.200012,0 -0.633301,0.666656 -1.299988,2c-0.666687,1.333344 -6.833313,10.5 -18.5,27.5c-11.666687,17 -21.400024,29.766663 -29.200012,38.299988c-7.866638,8.466675 -15.06665,15.266693 -21.599976,20.400024c-6.466675,5.199982 -13.266663,10.06665 -20.400024,14.599976c-7.200012,4.466675 -20.966675,10.200012 -41.299988,17.200012c-20.333344,7 -38.666656,11.333344 -55,13c-16.333344,1.666656 -34.666656,1.833344 -55,0.5c-20.333344,-1.333344 -40,-3.833344 -59,-7.5c-19,-3.666656 -40.166656,-8.833344 -63.5,-15.5l-35,-10l-1.5,-0.5l-1.5,-0.5l-1,-0.299988l-1,-0.200012l-0.199997,0l-0.300003,0l-0.5,-1l-0.5,-1l-0.5,-1l-0.5,-1l-0.300003,-1l-0.199997,-1l1,0.200012l1,0.299988l39.5,4.5c26.333344,3 46,4.833344 59,5.5c13,0.666656 33.166656,0.833344 60.5,0.5c27.333344,-0.333344 48.833344,-1.5 64.5,-3.5c15.666656,-2 24.333344,-3.166656 26,-3.5c1.666656,-0.333344 2.666656,-0.600006 3,-0.799988l0.5,-0.200012l1.5,-0.200012l1.5,-0.299988l17,-4.5c11.333344,-3 20.666687,-6.333344 28,-10c7.333313,-3.666656 16.266663,-9.733337 26.799988,-18.200012c10.466675,-8.533325 23.133362,-19.533325 38,-33c14.799988,-13.533325 24.799988,-23.06665 30,-28.599976c5.133362,-5.466675 7.799988,-8.266693 8,-8.400024l0.200012,-0.299988l0.200012,-0.299988l0.299988,-0.200012l0.299988,-0.200012l0.200012,-0.299988l0.200012,-0.299988l0.299988,-0.200012l0.299988,-0.200012l0.200012,-0.299988l0.200012,-0.299988l0.299988,-0.200012l0.299988,-0.200012l0.200012,-0.299988l0.200012,-0.299988l0.299988,-0.200012l0.5,-1l0.5,-1l0.299988,-0.200012z"/>
  <path id="svg_7" fill="#FDE500" fill-rule="evenodd" stroke="#FDE500" stroke-width="0.5px" d="m315,147l5.5,8l0.299988,0.199997l0.200012,0.300003l0.200012,0.300003l0.299988,0.199997l0.5,1l0.5,1l0.299988,1.5c0.133331,1 -0.966644,0.899994 -3.299988,-0.300003l-3.5,-1.699997l-1.5,0l-1.5,0l0.200012,0.300003l0.299988,0.199997l0.299988,0.5l0.200012,0.5l-0.200012,0.5c-0.199982,0.333328 -1.199982,0.233337 -3,-0.300003c-1.866669,-0.46666 -3.06665,-0.266663 -3.599976,0.600006c-0.466675,0.800003 -5.266693,3.599991 -14.400024,8.399994c-9.199982,4.866669 -13.633331,7.733337 -13.299988,8.600006c0.333344,0.800003 -0.100006,1.533325 -1.299988,2.199997c-1.133331,0.666672 -3.133331,1.600006 -6,2.800003l-4.200012,1.699997l-0.200012,0.300003l-0.299988,0.199997l-0.299988,0.199997l-0.200012,0.300003l-1.5,0.5l-1.5,0.5l-1,0.5l-1,0.5l1.5,0.5l1.5,0.5l0,0.300003l0,0.199997l-12.5,2.199997c-8.333328,1.53334 -18.100006,4.53334 -29.300003,9c-11.133331,4.53334 -19.533325,8.800003 -25.199997,12.800003c-5.666672,4 -11.399994,8.166672 -17.199997,12.5c-5.866669,4.333328 -12.53334,11.333328 -20,21c-7.53334,9.666672 -13.466675,19.166656 -17.800003,28.5c-4.333328,9.333344 -7.333328,16.5 -9,21.5c-1.666672,5 -2.666672,8.5 -3,10.5l-0.5,3l-0.5,3l-0.5,3l0,1.5l0,1.5l0.300003,-0.200012l0.199997,-0.299988l0.199997,-0.299988l0.300003,-0.200012l0.5,-1l0.5,-1l0.5,-1l0.5,-1l0.5,-1l0.5,-1l0.5,-1c0.333328,-0.666656 1,-1.833344 2,-3.5c1,-1.666656 6.5,-9 16.5,-22c10,-13 18.5,-23 25.5,-30l10.5,-10.5l0.300003,-0.199997l0.199997,-0.300003l0.199997,-0.300003l0.300003,-0.199997l0.300003,-0.199997l0.199997,-0.300003l0.199997,-0.300003l0.300003,-0.199997l0.300003,-0.199997l0.199997,-0.300003l1,-0.5l1,-0.5l0.199997,-0.300003l0.300003,-0.199997l0.300003,-0.199997l0.199997,-0.300003l0.199997,-0.300003l0.300003,-0.199997l0.300003,0l0.199997,0l-0.199997,1l-0.300003,1l-0.5,1l-0.5,1l-0.300003,0.199997l-0.199997,0.300003l0.199997,0.300003l0.300003,0.199997l0.300003,0.199997l0.199997,0.300003l-0.199997,0.300003l-0.300003,0.199997l-0.300003,0.199997l-0.199997,0.300003l-0.199997,0.300003l-0.300003,0.199997l-0.300003,0.199997l-0.199997,0.300003l-2.199997,3.699997c-1.53334,2.53334 -2.400009,3.800003 -2.600006,3.800003l-0.199997,0l-0.199997,1l-0.300003,1l-0.300003,0.200012l-0.199997,0.299988l-0.199997,0.299988l-0.300003,0.200012l-0.699997,1.200012c-0.53334,0.866669 -0.466675,1.399994 0.199997,1.599976c0.666672,0.133331 1,0.700012 1,1.700012c0,1 -0.333328,1.5 -1,1.5c-0.666672,0 -2.066666,2.5 -4.199997,7.5c-2.199997,5 -3.400009,7.899994 -3.600006,8.700012c-0.133331,0.866669 -0.46666,1.533325 -1,2c-0.46666,0.533325 -0.800003,1.299988 -1,2.299988c-0.133331,1 0.199997,1.666656 1,2c0.866669,0.333344 0.733337,1.100006 -0.399994,2.299988c-1.199997,1.133331 -1.466675,1.800018 -0.800003,2c0.666672,0.133331 -0.600006,2.200012 -3.800003,6.200012c-3.133331,4 -4.800003,6.066681 -5,6.200012l-0.199997,0.299988l-0.199997,0.299988l-0.300003,0.200012l-0.300003,0.200012l-0.199997,0.299988l-0.199997,0.299988l-0.300003,0.200012l-0.300003,0.200012l-0.199997,0.299988l-0.199997,0.299988l-0.300003,0.200012l-0.300003,0.200012l-0.199997,0.299988l-0.199997,0.299988l-0.300003,0.200012l-0.300003,0.200012l-0.199997,0.299988l-0.199997,0.299988l-0.300003,0.200012l-0.300003,1l-0.199997,1l-6.199997,10c-4.199997,6.666656 -6.966675,12.166656 -8.300003,16.5c-1.333328,4.333344 -1.833328,8.5 -1.5,12.5c0.333328,4 1.399994,7.399994 3.199997,10.200012c1.866669,2.866669 5.133331,4.633331 9.800003,5.299988c4.666672,0.666656 8,0.766663 10,0.299988c2,-0.533325 3.066666,-1.299988 3.199997,-2.299988l0.300003,-1.5l0.300003,-0.200012l0.199997,-0.299988l0.199997,-0.299988l0.300003,-0.200012l0.300003,0.200012l0.199997,0.299988l0.199997,0.299988l0.300003,0.200012l0.5,1l0.5,1l0.300003,0l0.199997,0l0.199997,3.5c0.199997,2.333344 0.466675,4.166656 0.800003,5.5l0.5,2l0.5,1l0.5,1l0.300003,1l0.199997,1l1,0.200012l1,0.299988l2.5,0.299988l2.5,0.200012l0.199997,-1l0.300003,-1l0.5,-1l0.5,-1l0.5,-5l0.5,-5l0.5,-1.5l0.5,-1.5l0.5,-1.5l0.5,-1.5l0.300003,0.200012l0.199997,0.299988l0.199997,0.299988l0.300003,0.200012l0.5,1l0.5,1l0.5,1l0.5,1l0.5,1l0.5,1l21.699997,33.799988c14.53334,22.466675 30.53334,45.800018 48.000015,70c17.533325,24.133331 31.866669,43.133331 43,57c11.199982,13.799988 25.466644,29.366699 42.799988,46.700012c17.333344,17.333313 32.166656,30.666687 44.5,40c12.333344,9.333313 23.833344,17 34.5,23c10.666656,6 22.166656,10.5 34.5,13.5c12.333344,3 24.166656,4.333313 35.5,4c11.333344,-0.333313 21.333313,-2 30,-5c8.666687,-3 15,-5.5 19,-7.5c4,-2 10.666687,-3 20,-3c9.333313,0 15.166687,-0.166687 17.5,-0.5l3.5,-0.5l1.5,-0.299988l1.5,-0.200012l0.5,-0.200012c0.333313,-0.200012 0.5,-0.399963 0.5,-0.599976l0,-0.200012l1.5,-0.200012c1,-0.200012 3.5,-1.299988 7.5,-3.299988c4,-2 7.833313,-5.166687 11.5,-9.5c3.666687,-4.333313 6.43335,-9.06665 8.299988,-14.200012c1.799988,-5.200012 2.700012,-11.799988 2.700012,-19.799988c0,-8 -0.833313,-14.333313 -2.5,-19c-1.666687,-4.666687 -1.333313,-10.833313 1,-18.5c2.333313,-7.666687 3.833313,-15.166687 4.5,-22.5c0.666687,-7.333313 0,-15.666687 -2,-25c-2,-9.333344 -3.666687,-20.666656 -5,-34c-1.333313,-13.333344 -1.900024,-21.166656 -1.700012,-23.5l0.200012,-3.5l0.200012,-4.5c0.200012,-3 0.466675,-7.166656 0.799988,-12.5c0.333313,-5.333344 2,-20.666656 5,-46c3,-25.333344 8,-56.833344 15,-94.5l10.5,-56.5l0.299988,-1l0.200012,-1l1,0.199997l1,0.300003l1.5,0.5l1.5,0.5l4,4c2.666687,2.666672 4.06665,4.100006 4.200012,4.300003l0.299988,0.199997l0.299988,0.199997l0.200012,0.300003l0.200012,0.300003l0.299988,0.199997l0.299988,0.199997l0.200012,0.300003l0.200012,0.300003l0.299988,0.199997l0.299988,0.199997l0.200012,0.300003l1,0l1,0l0.200012,-0.300003l0.299988,-0.199997l0.299988,-0.199997l0.200012,-0.300003l0.200012,-0.300003l0.299988,-0.199997l0.5,-1.5l0.5,-1.5l0,-2.5c0,-1.666672 -0.43335,-3.333328 -1.299988,-5l-1.200012,-2.5l0,-0.199997l0,-0.300003l1,-0.5l1,-0.5l-0.200012,-0.300003l-0.299988,-0.199997l-0.299988,-1l-0.200012,-1l1,-0.199997l1,-0.300003l0.200012,-0.300003l0.299988,-0.199997l0,-0.5l0,-0.5l-0.5,-1.5l-0.5,-1.5l-0.299988,-0.199997l-0.200012,-0.300003l-0.200012,-0.300003l-0.299988,-0.199997l-0.299988,-1l-0.200012,-1l1,0l1,0l0.200012,1l0.299988,1l0.299988,0.199997l0.200012,0.300003l1,0.5l1,0.5l0.200012,0.300003l0.299988,0.199997l0.299988,0.199997l0.200012,0.300003l0.200012,0.300003l0.299988,0.199997l0.299988,0.199997l0.200012,0.300003l0.200012,0.300003c0.200012,0.133331 0.399963,0.266663 0.599976,0.399994c0.133362,0.199997 0.466675,1.733337 1,4.600006c0.466675,2.800003 2.866699,7.699997 7.200012,14.699997c4.333313,7 10.333313,18.166672 18,33.5c7.666687,15.333344 14,30.5 19,45.5c5,15 8.833313,30 11.5,45c2.666687,15 4,33.333344 4,55c0,21.666656 -1.166687,39.5 -3.5,53.5c-2.333313,14 -4.833313,25.5 -7.5,34.5c-2.666687,9 -7,21 -13,36c-6,15 -11.666687,27.166687 -17,36.5c-5.333313,9.333313 -11.5,19.166687 -18.5,29.5c-7,10.333313 -15.733337,20.900024 -26.200012,31.700012c-10.533325,10.866638 -16.799988,17.533325 -18.799988,20c-2,2.533325 -4.333313,4.733337 -7,6.599976c-2.666687,1.799988 -10.5,7.366699 -23.5,16.700012c-13,9.333313 -28.5,18.5 -46.5,27.5c-18,9 -32.333313,15.5 -43,19.5c-10.666656,4 -24.666656,7.833313 -42,11.5c-17.333344,3.666687 -38,5.666687 -62,6c-24,0.333313 -45.333344,-1.166687 -64,-4.5c-18.666656,-3.333313 -33.166656,-6.833313 -43.5,-10.5c-10.333344,-3.666687 -21.666656,-8.166687 -34,-13.5c-12.333328,-5.333313 -21.5,-9.833313 -27.5,-13.5c-6,-3.666687 -12.166672,-7.5 -18.5,-11.5c-6.333328,-4 -15.666672,-10.666687 -28,-20c-12.333328,-9.333313 -21.899994,-17.56665 -28.699997,-24.700012c-6.866669,-7.200012 -11.53334,-11.966675 -14,-14.299988c-2.53334,-2.333313 -5.300003,-5.56665 -8.300003,-9.700012c-3,-4.200012 -8,-11.299988 -15,-21.299988c-7,-10 -13.76667,-20.900024 -20.300003,-32.700012c-6.466667,-11.866638 -13.199997,-28.299988 -20.199997,-49.299988c-7,-21 -11.5,-38.666656 -13.5,-53c-2,-14.333344 -3.166656,-28.166656 -3.5,-41.5c-0.333344,-13.333344 0,-24.833344 1,-34.5c1,-9.666656 3.333344,-23 7,-40c3.666656,-17 8.333344,-33.166656 14,-48.5c5.666656,-15.333344 11.166656,-27.666656 16.5,-37c5.333344,-9.333344 11.333344,-19 18,-29c6.666672,-10 13.833328,-19.5 21.5,-28.5c7.666672,-9 16.666672,-18.166672 27,-27.5c10.333328,-9.333328 21,-18 32,-26c11,-8 21.933334,-15.066666 32.800003,-21.199997c10.800003,-6.200005 18.199997,-9.633347 22.199997,-10.300003c4,-0.666656 6.5,-0.833344 7.5,-0.5c1,0.333344 1.333344,1.26667 1,2.800003c-0.333344,1.466667 3.5,1.933327 11.5,1.399994c8,-0.466667 14.600006,1.400009 19.799988,5.600006c5.133331,4.133331 9.533356,8.866669 13.200012,14.199997z"/>
  <path id="svg_8" fill="#FDFD01" fill-rule="evenodd" stroke="#FDFD01" stroke-width="0.5px" d="m566,214l0,-4l2,0l2,0l0,1.5l0,1.5l2,0.5c1.333313,0.333328 2,0.166672 2,-0.5c0,-0.666672 2,-0.399994 6,0.800003c4,1.133331 6.5,2.533325 7.5,4.199997c1,1.666672 2.43335,2.933334 4.299988,3.800003c1.799988,0.800003 2.866699,1.866669 3.200012,3.199997l0.5,2l0.299988,0.199997l0.200012,0.300003l1,0.5l1,0.5l0.200012,0.300003l0.299988,0.199997l0.299988,-0.199997l0.200012,-0.300003l0.200012,-0.300003l0.299988,-0.199997l0.5,-2.5l0.5,-2.5l0.299988,-1l0.200012,-1l2,0l2,0l2.200012,3c1.533325,2 2.533325,2.733337 3,2.199997c0.533325,-0.46666 1.399963,-0.266663 2.599976,0.600006c1.133362,0.800003 1.799988,1.533325 2,2.199997l0.200012,1l0.200012,1c0.200012,0.666672 0.133301,3 -0.200012,7c-0.333313,4 -1.733337,6.666672 -4.200012,8c-2.533325,1.333328 -3.866638,2.5 -4,3.5c-0.200012,1 -1.200012,2.100006 -3,3.300003c-1.866638,1.133331 -3.799988,2.933334 -5.799988,5.400009c-2,2.533325 -4.06665,4.633331 -6.200012,6.299988c-2.200012,1.666656 -5.533325,4.233337 -10,7.700012l-6.799988,5.299988l-0.200012,0.299988l-0.299988,0.200012l-0.299988,0.200012l-0.200012,0.299988l-1.5,0l-1.5,0l0.200012,-0.299988c0.200012,-0.133331 0.299988,-0.700012 0.299988,-1.700012l0,-1.5l-0.299988,0.200012l-0.200012,0.299988l-1,0.5c-0.666687,0.333344 -5.5,0.666656 -14.5,1c-9,0.333344 -23,1 -42,2l-28.5,1.5l-4.5,0.5l-4.5,0.5l3,0.5l3,0.5l2,0.5c1.333344,0.333344 2.833344,0.666656 4.5,1l2.5,0.5l0.200012,0.299988l0.299988,0.200012l0.299988,0.200012l0.200012,0.299988l-1.5,0.5l-1.5,0.5l-5,0.5c-3.333344,0.333344 -5.666656,0.666656 -7,1l-2,0.5l-0.200012,0.299988l-0.299988,0.200012l-0.299988,0.200012l-0.200012,0.299988l-1,0.5l-1,0.5l2.5,1c1.666656,0.666656 3,1.166656 4,1.5l1.5,0.5l-2.5,0.5c-1.666656,0.333344 -3.5,0.666656 -5.5,1l-3,0.5l2.5,0.5l2.5,0.5l3,0.5l3,0.5l3.5,0.299988l3.5,0.200012l0,0.200012l0,0.299988l-1,0.5l-1,0.5l-1,0.5l-1,0.5l-3,0.5c-2,0.333344 -8.5,1.166656 -19.5,2.5c-11,1.333344 -23.5,2.666656 -37.5,4c-14,1.333344 -22.666656,2.433319 -26,3.299988l-5,1.200012l-0.5,0.200012c-0.333344,0.199982 -0.5,0.399994 -0.5,0.599976l0,0.200012l-2,-0.200012l-2,-0.299988l0.200012,-0.299988c0.199982,-0.133331 0.299988,-0.366669 0.299988,-0.700012c0,-0.333344 0.333344,-1 1,-2c0.666656,-1 0.100006,-1.766663 -1.700012,-2.299988c-1.866669,-0.466675 -4.633331,-0.700012 -8.299988,-0.700012c-3.666656,0 -7.666656,0.333344 -12,1c-4.333344,0.666656 -6.766663,1.433319 -7.299988,2.299988c-0.466675,0.800018 -1.800018,1.266693 -4,1.400024c-2.133331,0.199982 -3.266693,0.533325 -3.400024,1c-0.199982,0.533325 -1.06665,0.866669 -2.599976,1c-1.466675,0.199982 -2.366669,0.733307 -2.700012,1.599976c-0.333344,0.800018 -0.833344,1.133331 -1.5,1c-0.666656,-0.199982 -5,1.366669 -13,4.700012c-8,3.333344 -14.166656,6.833344 -18.5,10.5c-4.333344,3.666656 -7.433319,8.066681 -9.299988,13.200012l-2.700012,7.799988l-0.5,1l-0.5,1l-0.299988,0.200012l-0.200012,0.299988l-0.200012,0.299988l-0.299988,0.200012l-0.299988,0.5l-0.200012,0.5l-3.5,-0.200012c-2.333344,-0.199982 -18.166656,-0.966644 -47.5,-2.299988l-44,-2l-4,-0.5l-4,-0.5l0.199997,-0.299988l0.300003,-0.200012l0.300003,-0.200012l0.199997,-0.299988l1,-0.5l1,-0.5l0.199997,-0.299988l0.300003,-0.200012l0.300003,-0.200012l0.199997,-0.299988l1.5,-0.5c1,-0.333344 3,-0.600006 6,-0.799988l4.5,-0.200012l0.199997,-1l0.300003,-1l0,-1l0,-1l-0.300003,-0.200012l-0.199997,-0.299988l-0.199997,-0.299988l-0.300003,-0.200012l-0.300003,-0.200012l-0.199997,-0.299988l-0.199997,-0.299988l-0.300003,-0.200012l-0.300003,-0.200012l-0.199997,-0.299988l-0.199997,-0.299988l-0.300003,-0.200012l-0.300003,-0.200012l-0.199997,-0.299988l-0.199997,-0.299988l-0.300003,-0.200012l-0.300003,-0.200012l-0.199997,-0.299988l-1,-0.5c-0.666672,-0.333344 -2.5,-0.333344 -5.5,0l-4.5,0.5l-1.5,0.299988l-1.5,0.200012l0.199997,-0.5l0.300003,-0.5l0.5,-1l0.5,-1l0.5,-2c0.333328,-1.333344 0.833328,-2.666656 1.5,-4c0.666672,-1.333344 1.166672,-5.333344 1.5,-12c0.333328,-6.666656 -0.833328,-11.5 -3.5,-14.5c-2.666672,-3 -5.766663,-4.766663 -9.300003,-5.299988c-3.46666,-0.466675 -7.366669,0.633331 -11.699997,3.299988l-6.5,4l-1,0.5l-1,0.5l-1,0.299988l-1,0.200012l0,1l0,1l-1,0.200012l-1,0.299988l-0.5,0.299988l-0.5,0.200012l0.199997,-1l0.300003,-1l0.300003,-0.200012l0.199997,-0.299988l0.199997,-0.299988l0.300003,-0.200012l0.300003,-0.200012l0.199997,-0.299988l0.199997,-0.299988l0.300003,-0.200012l0.300003,-0.200012l0.199997,-0.299988l0.199997,-0.299988l0.300003,-0.200012l0.300003,-0.200012l0.199997,-0.299988l0.199997,-0.299988l0.300003,-0.200012l0.300003,-0.200012l0.199997,-0.299988l0.199997,-0.299988c0.199997,-0.133331 1.866669,-2.200012 5,-6.200012c3.199997,-4 4.466675,-6.066681 3.800003,-6.200012c-0.666672,-0.199982 -0.399994,-0.866669 0.800003,-2c1.133331,-1.199982 1.266663,-1.966644 0.399994,-2.299988c-0.800003,-0.333344 -1.133331,-1 -1,-2c0.199997,-1 1.133331,-3.333344 2.800003,-7c1.666672,-3.666656 3,-7 4,-10c1,-3 1.833328,-5.333344 2.5,-7l1,-2.5l0.300003,-0.200012l0.199997,-0.299988l0.199997,-0.299988l0.300003,-0.200012l0.300003,-1l0.199997,-1l0.5,-0.199997l0.5,-0.300003l1,-0.300003l1,-0.199997l-0.199997,1l-0.300003,1l-0.300003,0.199997l-0.199997,0.300003l1,0.5l1,0.5l-0.199997,0.299988l-0.300003,0.200012l0.300003,1.799988c0.133331,1.133331 0.699997,1.600006 1.699997,1.400024c1,-0.133331 1.666672,0.866669 2,3c0.333328,2.199982 0.833328,3.199982 1.5,3c0.666672,-0.133331 1,0.133331 1,0.799988c0,0.666656 -0.333328,1.066681 -1,1.200012c-0.666672,0.199982 -1,0.399994 -1,0.599976l0,0.200012l0,1.5l0,1.5l1,0c0.666672,0 1.066666,-0.333344 1.199997,-1c0.199997,-0.666656 0.400009,-1 0.600006,-1l0.199997,0l0.5,0l0.5,0l1.5,0c1,0 1.5,0.333344 1.5,1c0,0.666656 1.666672,0.733337 5,0.200012c3.333328,-0.466675 6.333328,-1.366669 9,-2.700012c2.666672,-1.333344 4.666672,-2.100006 6,-2.299988l2,-0.200012l-0.199997,1l-0.300003,1l-0.300003,0.200012l-0.199997,0.299988l-0.199997,0.299988l-0.300003,0.200012l-0.300003,0.200012l-0.199997,0.299988l1.5,0.5l1.5,0.5l0.800003,1.700012c0.46666,1.199982 0.033325,3.299988 -1.300003,6.299988c-1.333328,3 -2.100006,4.833344 -2.300003,5.5l-0.199997,1l1,-0.200012l1,-0.299988l1,-0.299988c0.666672,-0.133331 1.066666,0.633331 1.199997,2.299988c0.199997,1.666656 0.53334,2.100006 1,1.299988c0.53334,-0.866669 1.800003,-1.399994 3.800003,-1.599976l3,-0.200012l0,10c0,6.666656 -1.5,10 -4.5,10c-3,0 -4.666672,1.266663 -5,3.799988c-0.333328,2.466675 -1.333328,3.800018 -3,4l-2.5,0.200012l0,6l0,6l7.5,0c5,0 7.566666,0.333344 7.699997,1c0.199997,0.666656 0.400009,3.333344 0.600006,8l0.199997,7l29,-0.5c19.333344,-0.333344 29.166656,-3.333344 29.5,-9c0.333344,-5.666656 1.5,-8.5 3.5,-8.5c2,0 3,-1 3,-3c0,-2 1.5,-3 4.5,-3c3,0 4.666656,-0.833344 5,-2.5c0.333344,-1.666656 1.5,-2.5 3.5,-2.5c2,0 3,-0.5 3,-1.5c0,-1 4.066681,-1.666656 12.200012,-2c8.199982,-0.333344 12.399994,-1.666656 12.599976,-4c0.133331,-2.333344 3.033356,-3.5 8.700012,-3.5c5.666656,0 8.5,-1.333344 8.5,-4c0,-2.666656 5.333344,-4 16,-4c10.666656,0 16,-0.666656 16,-2c0,-1.333344 1,-2 3,-2c2,0 3,-0.666656 3,-2c0,-1.333344 4.166656,-2 12.5,-2c8.333344,0 12.5,-1 12.5,-3c0,-2 10.333344,-3.333344 31,-4c20.666656,-0.666656 31.166656,-1.266663 31.5,-1.799988c0.333344,-0.466675 0.833344,-0.533356 1.5,-0.200012c0.666656,0.333344 2.066681,0.399994 4.200012,0.200012c2.199982,-0.133331 3.399994,-0.533356 3.599976,-1.200012c0.133331,-0.666656 0.600006,-0.833344 1.400024,-0.5c0.866669,0.333344 1.199982,0.833344 1,1.5c-0.133331,0.666656 0.733307,1 2.599976,1c1.800018,0 2.800018,-1 3,-3c0.133331,-2 10.533356,-3.399994 31.200012,-4.200012c20.666687,-0.866669 31.333313,-1.199982 32,-1c0.666687,0.133331 1.166687,-1.06665 1.5,-3.599976c0.333313,-2.466675 1.833313,-3.866669 4.5,-4.200012c2.666687,-0.333344 5.166687,-0.399994 7.5,-0.200012l3.5,0.200012l0,-8l0,-8l4,-0.199997c2.666687,-0.199997 5.166687,-0.300003 7.5,-0.300003l3.5,0l0.200012,-0.300003l0.299988,-0.199997l0,-4l0,-4l-0.299988,-0.199997l-0.200012,-0.300003l-0.200012,-0.300003l-0.299988,-0.199997l-0.299988,-1c-0.133362,-0.666672 -1.700012,-1 -4.700012,-1c-3,0 -4.5,-1.333328 -4.5,-4c0,-2.666672 -0.666687,-4 -2,-4c-1.333313,0 -2.5,-1.333328 -3.5,-4c-1,-2.666672 -3.666687,-4 -8,-4l-6.5,0l0,-4zm-380.800003,46.200012c0.199997,-0.133331 0.400009,-0.133331 0.600006,0c0.133331,0.199982 0.033325,0.299988 -0.300003,0.299988c-0.333328,0 -0.433334,-0.100006 -0.300003,-0.299988z"/>
  <path id="svg_9" fill="#C60006" fill-rule="evenodd" stroke="#C60006" stroke-width="0.5px" d="m207,337l1,0.5l0.199997,0.299988l0.300003,0.200012l0.300003,0.200012l0.199997,0.299988l0.199997,0.299988l0.300003,0.200012l0.300003,0.200012l0.199997,0.299988l0.199997,0.299988l0.300003,0.200012l0.300003,0.200012l0.199997,0.299988l0.199997,0.299988l0.300003,0.200012l0.300003,0.200012l0.199997,0.299988l0.199997,0.299988l0.300003,0.200012l0,1l0,1l-0.300003,1l-0.199997,1l-4.5,0.200012c-3,0.199982 -5,0.466644 -6,0.799988l-1.5,0.5l-0.199997,0.299988l-0.300003,0.200012l-0.300003,0.200012l-0.199997,0.299988l-1,0.5l-1,0.5l-0.199997,0.299988l-0.300003,0.200012l-0.300003,0.200012l-0.199997,0.299988l4,0.5l4,0.5l44,2c29.333344,1.333344 45.166656,2.100006 47.5,2.299988l3.5,0.200012l49,-1.200012c32.666656,-0.866669 54,-1.966644 64,-3.299988c10,-1.333344 16.333344,-2.166656 19,-2.5l4,-0.5l1,-0.299988l1,-0.200012l15.5,-2.799988c10.333344,-1.800018 18.5,-3.533356 24.5,-5.200012c6,-1.666656 9.5,-2.600006 10.5,-2.799988l1.5,-0.200012l-0.5,0.799988c-0.333344,0.466675 -0.233337,0.93335 0.299988,1.400024c0.466675,0.533325 -0.199982,1.466644 -2,2.799988c-1.866669,1.333344 -4.06665,4 -6.599976,8c-2.466675,4 -3.866669,6.333344 -4.200012,7l-0.5,1l-0.5,1.5l-0.5,1.5l-0.299988,0.200012l-0.200012,0.299988l1,0.5l1,0.5l-0.200012,0.299988l-0.299988,0.200012l-0.299988,1.5l-0.200012,1.5l-0.5,0.200012c-0.333344,0.199982 -1.333344,0.466644 -3,0.799988c-1.666656,0.333344 -10.333344,1.5 -26,3.5c-15.666656,2 -37.166656,3.166656 -64.5,3.5c-27.333344,0.333344 -47.5,0.166656 -60.5,-0.5c-13,-0.666656 -32.666656,-2.5 -59,-5.5l-39.5,-4.5l-1,-0.299988l-1,-0.200012l0.199997,1l0.300003,1l0.5,1l0.5,1l0.5,1l0.5,1l0.300003,0l0.199997,0l0,0.200012l0,0.299988l0.199997,0.299988l0.300003,0.200012l0.5,1l0.5,1l0.300003,0.200012l0.199997,0.299988l0.199997,0.299988l0.300003,0.200012l0.5,1l0.5,1l13.300003,21.200012c8.800003,14.199982 20.266678,31.533325 34.400009,52c14.199982,20.533325 28.966644,40.299988 44.299988,59.299988c15.333344,19 29.100006,34.766663 41.299988,47.299988c12.133331,12.466675 18.366669,18.799988 18.700012,19l0.5,0.200012l3,2.799988c2,1.799988 3.066681,2.799988 3.200012,3l0.299988,0.200012l9.299988,7.200012c6.133331,4.866638 13.866669,10.299988 23.200012,16.299988c9.333344,6 17.5,10.166687 24.5,12.5c7,2.333313 12.833344,3.833313 17.5,4.5c4.666656,0.666687 10.833344,1 18.5,1l11.5,0l3.5,-0.299988l3.5,-0.200012l-0.200012,-1l-0.299988,-1l-0.299988,-0.200012l-0.200012,-0.299988l-0.200012,-0.299988l-0.299988,-0.200012l-0.299988,-0.200012l-0.200012,-0.299988l-1,-0.5l-1,-0.5l-0.200012,-0.299988l-0.299988,-0.200012l-0.299988,-0.200012l-0.200012,-0.299988l-0.200012,-0.299988c-0.199982,-0.133362 -1.733307,-1.466675 -4.599976,-4c-2.800018,-2.466675 -5.93335,-6.266663 -9.400024,-11.400024c-3.533325,-5.200012 -6.399994,-9.633301 -8.599976,-13.299988l-3.200012,-5.5l-0.200012,-1.5l-0.299988,-1.5l-0.299988,-0.200012l-0.200012,-0.299988l-0.200012,-0.299988l-0.299988,-0.200012l-0.5,-1l-0.5,-1l-0.299988,-0.200012l-0.200012,-0.299988l-0.200012,-0.299988l-0.299988,-0.200012l-0.299988,-0.200012l-0.200012,-0.299988l-0.200012,-0.299988l-0.299988,-0.200012l-0.299988,-0.200012l-0.200012,-0.299988l-1,-0.5l-1,-0.5l-1.5,-0.5c-1,-0.333313 -4.833344,-0.400024 -11.5,-0.200012l-10,0.200012l0,-2.5l0,-2.5l1,0l1,0l0.200012,1l0.299988,1l0.299988,-0.200012l0.200012,-0.299988l0.200012,-0.299988l0.299988,-0.200012l0.299988,-0.200012l0.200012,-0.299988l1,-0.5l1,-0.5l0.200012,-0.299988l0.299988,-0.200012l0.299988,-0.200012l0.200012,-0.299988l4.5,-1.5c3,-1 6.333344,-1.333313 10,-1c3.666656,0.333313 7.233337,2.266663 10.700012,5.799988c3.533325,3.466675 7.799988,9.866699 12.799988,19.200012c5,9.333313 10.600006,17.06665 16.799988,23.200012c6.133331,6.200012 12.866669,10.633301 20.200012,13.299988c7.333313,2.666687 19.666687,5 37,7c17.333313,2 27.833313,3.166687 31.5,3.5l5.5,0.5l0,0.299988l0,0.200012l-0.200012,0l-0.299988,0l-0.299988,0.5l-0.200012,0.5l-1.5,0.200012l-1.5,0.299988l-3.5,0.5c-2.333313,0.333313 -8.166687,0.5 -17.5,0.5c-9.333313,0 -16,1 -20,3c-4,2 -10.333313,4.5 -19,7.5c-8.666687,3 -18.666656,4.666687 -30,5c-11.333344,0.333313 -23.166656,-1 -35.5,-4c-12.333344,-3 -23.833344,-7.5 -34.5,-13.5c-10.666656,-6 -22.166656,-13.666687 -34.5,-23c-12.333344,-9.333313 -27.166656,-22.666687 -44.5,-40c-17.333344,-17.333313 -31.600006,-32.900024 -42.799988,-46.700012c-11.133331,-13.866669 -25.466675,-32.866669 -43,-57c-17.466675,-24.199982 -33.466675,-47.533325 -48.000015,-70l-21.699997,-33.799988l-0.5,-1l-0.5,-1l-0.5,-1l-0.5,-1l-0.5,-1l-0.5,-1l-0.300003,-0.200012l-0.199997,-0.299988l-0.199997,-0.299988l-0.300003,-0.200012l-0.5,1.5l-0.5,1.5l-0.5,1.5l-0.5,1.5l-0.5,5l-0.5,5l-0.5,1l-0.5,1l-0.300003,1l-0.199997,1l-2.5,-0.200012l-2.5,-0.299988l-1,-0.299988l-1,-0.200012l-0.199997,-1l-0.300003,-1l-0.5,-1l-0.5,-1l-0.5,-2c-0.333328,-1.333344 -0.600006,-3.166656 -0.800003,-5.5l-0.199997,-3.5l0.199997,-0.5c0.199997,-0.333344 0.466675,-1.333344 0.800003,-3c0.333328,-1.666656 1.5,-4 3.5,-7c2,-3 4.899994,-6 8.699997,-9l5.800003,-4.5l1.5,-0.200012l1.5,-0.299988l4.5,-0.5c3,-0.333344 4.833328,-0.333344 5.5,0z"/>
  <path id="svg_10" fill="#F88E0F" fill-rule="evenodd" stroke="#F88E0F" stroke-width="0.5px" d="m137.199997,152l12.800003,-11l-0.800003,2.5c-0.46666,1.666672 -0.800003,2.566666 -1,2.699997l-0.199997,0.300003l0.5,1.300003c0.333328,0.800003 1.166672,1.033325 2.5,0.699997c1.333328,-0.333328 2,-0.166672 2,0.5c0,0.666672 0.333328,1.066666 1,1.199997l1,0.300003l-0.199997,0.300003l-0.300003,0.199997l-0.300003,0.199997c-0.133331,0.199997 -0.266663,0.400009 -0.399994,0.600006l-0.300003,0.199997l-0.300003,0.199997l-0.199997,0.300003l-0.199997,0.300003l-0.300003,0.199997l-0.300003,1l-0.199997,1l-0.199997,0c-0.199997,0 -0.400009,0.166672 -0.600006,0.5l-0.199997,0.5l-0.199997,0c-0.199997,0 -0.400009,0.166672 -0.600006,0.5l-0.199997,0.5l-20.800003,20c-13.799995,13.333328 -27.03334,28.666672 -39.699997,46c-12.666656,17.333328 -22.666656,33.333344 -30,48c-7.333328,14.666656 -12.5,26 -15.5,34c-3,8 -4.833328,14.5 -5.5,19.5c-0.666672,5 -1.833328,10.833344 -3.5,17.5c-1.666672,6.666656 -3.5,16.666656 -5.5,30c-2,13.333344 -3.83333,24.333344 -5.5,33c-1.66667,8.666656 -3,18.5 -4,29.5c-1,11 -1.33333,21.5 -1,31.5c0.33333,10 1.66667,22.666656 4,38c2.33333,15.333313 5.33333,29.166687 9,41.5c3.666672,12.333313 8.833328,26.666687 15.5,43c6.666672,16.333313 13.900002,31.099976 21.699997,44.299988c7.866676,13.133362 16.633347,26.033325 26.300003,38.700012c9.666656,12.666687 20.333344,24.833313 32,36.5c11.666672,11.666687 20.233337,19.733337 25.699997,24.200012c5.53334,4.533325 8.400009,6.966675 8.600006,7.299988l0.199997,0.5l0.199997,1l0.300003,1l0.300003,0.200012l0.199997,0.299988l0.199997,0.299988l0.300003,0.200012l0.300003,0.200012l0.199997,0.299988l0.199997,0.299988l0.300003,0.200012l0.300003,0.200012l0.199997,0.299988l0.199997,0.299988l0.300003,0.200012l0.5,2l0.5,2l0.300003,1l0.199997,1l-1.5,-0.200012l-1.5,-0.299988l-0.199997,-0.299988l-0.300003,-0.200012l-0.300003,0.200012l-0.199997,0.299988l-1.5,0.5l-1.5,0.5l0.199997,0.299988l0.300003,0.200012l0.300003,0.200012l0.199997,0.299988l-1,0.299988l-1,0.200012l-0.5,-0.200012l-0.5,-0.299988l-0.199997,-0.299988c-0.199997,-0.133362 -3.53334,-2.799988 -10,-8c-6.53334,-5.133362 -14.966675,-12.866699 -25.300003,-23.200012c-10.333344,-10.333313 -19,-19.333313 -26,-27c-7,-7.666687 -15.833344,-19.5 -26.5,-35.5c-10.666672,-16 -20.066669,-32.56665 -28.200001,-49.700012c-8.200001,-17.200012 -15.299999,-35.799988 -21.299999,-55.799988c-6,-20 -10.16667,-39.5 -12.5,-58.5c-2.33333,-19 -3.5,-35.666656 -3.5,-50c0,-14.333344 1.16667,-31.5 3.5,-51.5c2.33333,-20 6.5,-39.833344 12.5,-59.5c6,-19.666656 13.333328,-38.5 22,-56.5c8.666672,-18 17,-33.166672 25,-45.5c8,-12.333328 16.833344,-24.166672 26.5,-35.5c9.666656,-11.333328 15,-18 16,-20c1,-2 1.666656,-2.666672 2,-2c0.333344,0.666672 2.5,-1 6.5,-5c4,-4 10.233337,-9.666672 18.699997,-17zm13,-0.800003c0.199997,-0.133331 0.400009,-0.133331 0.600006,0c0.133331,0.199997 0.033325,0.300003 -0.300003,0.300003c-0.333328,0 -0.433334,-0.100006 -0.300003,-0.300003z"/>
  <path id="svg_11" fill="#FEFEFE" fill-rule="evenodd" stroke="#FEFEFE" stroke-width="0.5px" d="m382,576.799988l-3,-2.799988l22.5,3.200012c15,2.200012 28,3.466675 39,3.799988c11,0.333313 18,0.400024 21,0.200012l4.5,-0.200012l3.200012,5.5c2.199982,3.666687 5.06665,8.099976 8.599976,13.299988c3.466675,5.133362 6.600006,8.93335 9.400024,11.400024c2.866669,2.533325 4.399994,3.866638 4.599976,4l0.200012,0.299988l0.200012,0.299988l0.299988,0.200012l0.299988,0.200012l0.200012,0.299988l1,0.5l1,0.5l0.200012,0.299988l0.299988,0.200012l0.299988,0.200012l0.200012,0.299988l0.200012,0.299988l0.299988,0.200012l0.299988,1l0.200012,1l-3.5,0.200012l-3.5,0.299988l-11.5,0c-7.666656,0 -13.833344,-0.333313 -18.5,-1c-4.666656,-0.666687 -10.5,-2.166687 -17.5,-4.5c-7,-2.333313 -15.166656,-6.5 -24.5,-12.5c-9.333344,-6 -17.066681,-11.43335 -23.200012,-16.299988l-9.299988,-7.200012l-0.299988,-0.200012c-0.133331,-0.200012 -1.200012,-1.200012 -3.200012,-3z"/>
  <path id="svg_12" fill="#C50106" fill-rule="evenodd" stroke="#C50106" stroke-width="0.5px" d="m664.799988,221.199997l0.200012,0.300003l0.200012,0.300003l0.299988,0.199997l0.299988,0.199997l0.200012,0.300003l0.200012,0.300003l0.299988,0.199997l0.299988,0.199997l0.200012,0.300003l0.5,0.300003l0.5,0.199997l1.200012,2.5c0.866638,1.666672 1.299988,3.333328 1.299988,5l0,2.5l-0.5,1.5l-0.5,1.5l-0.299988,0.199997l-0.200012,0.300003l-0.200012,0.300003l-0.299988,0.199997l-0.299988,0.199997l-0.200012,0.300003l-1,0l-1,0l-0.200012,-0.300003l-0.299988,-0.199997l-0.299988,-0.199997l-0.200012,-0.300003l-0.200012,-0.300003l-0.299988,-0.199997l-0.299988,-0.199997l-0.200012,-0.300003l-0.200012,-0.300003l-0.299988,-0.199997l-0.299988,-0.199997c-0.133362,-0.199997 -1.533325,-1.633331 -4.200012,-4.300003l-4,-4l-1.5,-0.5l-1.5,-0.5l-1,-0.300003l-1,-0.199997l-0.200012,1l-0.299988,1l-10.5,56.5c-7,37.666656 -12,69.166656 -15,94.5c-3,25.333344 -4.666687,40.666656 -5,46c-0.333313,5.333344 -0.599976,9.5 -0.799988,12.5l-0.200012,4.5l-0.200012,0l-0.299988,0l-0.5,-1l-0.5,-1l-0.5,-1l-0.5,-1l-0.299988,-0.200012l-0.200012,-0.299988l-1,-0.299988l-1,-0.200012l-0.200012,-3c-0.200012,-2 -0.533325,-2.833344 -1,-2.5l-0.799988,0.5l-0.200012,0c-0.200012,0 -0.399963,-0.333344 -0.599976,-1c-0.133362,-0.666656 0.133301,-1 0.799988,-1c0.666687,0 1.400024,-8.333344 2.200012,-25c0.866638,-16.666656 3.299988,-40 7.299988,-70c4,-30 6.233337,-48.333344 6.700012,-55l0.799988,-10l0.200012,-1c0.200012,-0.666656 0.633301,-2 1.299988,-4l1,-3l0.5,-2l0.5,-2l0,-1l0,-1l-0.299988,0.200012l-0.200012,0.299988l-0.200012,0.299988l-0.299988,0.200012l-0.5,1l-0.5,1l-0.299988,0.200012l-0.200012,0.299988l-0.200012,0.299988l-0.299988,0.200012l-0.299988,0.200012l-0.200012,0.299988l-0.200012,0.299988l-0.299988,0.200012l-0.299988,0.200012l-0.200012,0.299988l-0.200012,0.299988l-0.299988,0.200012l-0.299988,0.200012l-0.200012,0.299988l-0.200012,0.299988c-0.200012,0.133331 -2.866638,2.93335 -8,8.400024c-5.200012,5.533325 -15.200012,15.06665 -30,28.599976c-14.866638,13.466675 -27.533325,24.466675 -38,33c-10.533325,8.466675 -19.466675,14.533356 -26.799988,18.200012c-7.333313,3.666656 -16.666656,7 -28,10l-17,4.5l-1.5,0.299988l-1.5,0.200012l0.200012,-1.5l0.299988,-1.5l0.299988,-0.200012l0.200012,-0.299988l-1,-0.5l-1,-0.5l0.200012,-0.299988l0.299988,-0.200012l0.5,-1.5l0.5,-1.5l0.5,-1c0.333344,-0.666656 1.733337,-3 4.200012,-7c2.533325,-4 4.733307,-6.666656 6.599976,-8c1.800018,-1.333344 2.466675,-2.266663 2,-2.799988c-0.533325,-0.466675 -0.633331,-0.93335 -0.299988,-1.400024l0.5,-0.799988l13,-4.200012c8.666656,-2.866669 13,-4.399994 13,-4.599976l0,-0.200012l1.5,-0.200012l1.5,-0.299988l1,-0.5l1,-0.5l1,-0.5l1,-0.5l11.200012,-6.299988c7.533325,-4.133331 23.799988,-16.866669 48.799988,-38.200012c25,-21.333344 37.599976,-32.166672 37.799988,-32.5l0.200012,-0.5l0.200012,0l0.299988,0l0.299988,-0.199997l0.200012,-0.300003l0.200012,-0.300003l0.299988,-0.199997l0.299988,-0.199997l0.200012,-0.300003l0.200012,-0.300003l0.299988,-0.199997l0.299988,-0.199997l0.200012,-0.300003l0.200012,-0.300003l0.299988,-0.199997l0.299988,-0.199997l0.200012,-0.300003l0.200012,-0.300003l0.299988,-0.199997l0.299988,-0.199997l0.200012,-0.300003l1,-0.5l1,-0.5l4.799988,-4.699997c3.133362,-3.199997 4.799988,-4.866669 5,-5l0.200012,-0.300003l0.200012,-0.300003l0.299988,-0.199997l0.299988,-0.199997l0.200012,-0.300003l0.200012,-0.300003l0.299988,-0.199997l0.299988,-0.199997l0.200012,-0.300003l0.200012,-0.300003l0.299988,-0.199997l0.299988,-0.199997l0.200012,-0.300003l0.200012,-0.300003l0.299988,-0.199997l0.299988,-0.199997l0.200012,-0.300003l0.200012,-0.300003l0.299988,-0.199997l0.299988,-0.199997l0.200012,-0.300003l0.200012,-0.300003l0.299988,-0.199997l0.299988,-0.199997l0.200012,-0.300003l-1,0l-1,0l-3,0.5c-2,0.333328 -4.166687,1 -6.5,2l-3.5,1.5l-1,0l-1,0l-1,-0.5l-1,-0.5l-0.200012,-0.300003l-0.299988,-0.199997l-0.299988,-0.199997l-0.200012,-0.300003l-0.200012,-0.300003l-0.299988,-0.199997l-0.299988,-0.199997l-0.200012,-0.300003l-0.200012,-0.300003l-0.299988,-0.199997l0,-1.5l0,-1.5l0.299988,-0.199997l0.200012,-0.300003l0.200012,-0.300003l0.299988,-0.199997l0.299988,-0.199997l0.200012,-0.300003l0.200012,-0.300003l0.299988,-0.199997l0.5,-1l0.5,-1l0.299988,-0.199997l0.200012,-0.300003l0.200012,-0.300003l0.299988,-0.199997l0.299988,-0.199997l0.200012,-0.300003l4.5,-2.5c3,-1.666672 7.166687,-2.5 12.5,-2.5c5.333313,0 10.266663,1.233337 14.799988,3.699997c4.466675,2.53334 6.799988,3.866669 7,4z"/>
  <path id="svg_13" fill="#FC0100" fill-rule="evenodd" stroke="#FC0100" stroke-width="0.5px" d="m611,431.5l0,-0.5l1,0c0.666687,0 1,1 1,3l0,3l1,0.200012l1,0.299988l0.200012,0.299988l0.299988,0.200012l0.5,1l0.5,1l0.5,1l0.5,1l0.299988,0l0.200012,0l-0.200012,3.5c-0.200012,2.333344 0.366699,10.166656 1.700012,23.5c1.333313,13.333344 3,24.666656 5,34c2,9.333313 2.666687,17.666687 2,25c-0.666687,7.333313 -2.166687,14.833313 -4.5,22.5c-2.333313,7.666687 -2.666687,13.833313 -1,18.5c1.666687,4.666687 2.5,11 2.5,19c0,8 -0.900024,14.599976 -2.700012,19.799988c-1.866638,5.133362 -4.633301,9.866699 -8.299988,14.200012c-3.666687,4.333313 -7.833313,7.666687 -12.5,10c-4.666687,2.333313 -7.333313,3.599976 -8,3.799988l-1,0.200012l0,-1c0,-0.666687 -1.666687,-1.06665 -5,-1.200012c-3.333313,-0.200012 -13.666687,-1.299988 -31,-3.299988c-17.333313,-2 -29.666687,-4.333313 -37,-7c-7.333344,-2.666687 -14.066681,-7.099976 -20.200012,-13.299988c-6.199982,-6.133362 -11.799988,-13.866699 -16.799988,-23.200012c-5,-9.333313 -9.266663,-15.733337 -12.799988,-19.200012c-3.466675,-3.533325 -7.033356,-5.466675 -10.700012,-5.799988c-3.666656,-0.333313 -7,0 -10,1l-4.5,1.5l-0.200012,0.299988l-0.299988,0.200012l-0.299988,0.200012l-0.200012,0.299988l-1,0.5l-1,0.5l-0.200012,0.299988l-0.299988,0.200012l-0.299988,0.200012l-0.200012,0.299988l-1,0l-1,0l0,-0.299988l0,-0.200012l0.5,-0.200012l0.5,-0.299988l0,-0.299988l0,-0.200012l0.200012,-0.5l0.299988,-0.5l0.299988,-0.200012l0.200012,-0.299988l0.200012,-0.299988l0.299988,-0.200012l0.299988,-0.200012l0.200012,-0.299988l0.200012,-0.299988l0.299988,-0.200012l0.299988,-0.200012l0.200012,-0.299988l0.200012,-0.299988l0.299988,-0.200012l0.299988,-0.200012l0.200012,-0.299988l0.200012,-0.299988l0.299988,-0.200012l0.299988,-0.200012l0.200012,-0.299988l6.5,-6c4.333344,-4 9.166656,-7.166687 14.5,-9.5c5.333344,-2.333313 14.833344,-4 28.5,-5c13.666656,-1 24.333313,-3.166687 32,-6.5c7.666687,-3.333313 17,-4.833313 28,-4.5c11,0.333313 19.333313,1 25,2c5.666687,1 8.666687,1.599976 9,1.799988l0.5,0.200012l0.200012,0l0.299988,0l0.299988,0.200012l0.200012,0.299988l7.799988,4.700012c5.133362,3.200012 7.93335,5.06665 8.400024,5.599976c0.533325,0.466675 0.866638,0.799988 1,1l0.299988,0.200012l0.299988,0.200012l0.200012,0.299988l0.200012,0.299988l0.299988,0.200012l0.299988,0.200012l0.200012,0.299988l1,0l1,0l0.200012,-0.299988l0.299988,-0.200012l0.5,-1l0.5,-1l0.5,-1.5c0.333313,-1 1.166687,-3.166687 2.5,-6.5c1.333313,-3.333313 2.166687,-8.666687 2.5,-16c0.333313,-7.333313 0.06665,-12.833344 -0.799988,-16.5l-1.200012,-5.5l-0.200012,-1c-0.200012,-0.666656 -0.633301,-4.5 -1.299988,-11.5c-0.666687,-7 -1.099976,-17.666656 -1.299988,-32l-0.200012,-21.5l0,-0.5z"/>
  <path id="svg_14" fill="#FCF102" fill-rule="evenodd" stroke="#FCF102" stroke-width="0.5px" d="m342,212.199997l1,-0.199997l0,1c0,0.666672 -0.333344,1 -1,1c-0.666656,0 -1.399994,0.666672 -2.200012,2c-0.866669,1.333328 -4.733307,3.399994 -11.599976,6.199997c-6.800018,2.866669 -18.033356,5.199997 -33.700012,7l-23.5,2.800003l0,1l0,1l-4,0.199997c-2.666656,0.199997 -4.666656,0.466675 -6,0.800003c-1.333344,0.333328 -4.166656,1.399994 -8.5,3.199997l-6.5,2.800003l-1.5,0.199997l-1.5,0.300003l-1,0.5l-1,0.5l-0.199997,0.300003l-0.300003,0.199997l-0.300003,0.199997l-0.199997,0.300003l-0.199997,0.300003l-0.300003,0.199997l-0.300003,0.199997l-0.199997,0.300003l-0.199997,0.300003l-0.300003,0.199997l-0.300003,0.199997l-0.199997,0.300003l-0.199997,0.300003c-0.199997,0.133331 -0.53334,0.266663 -1,0.399994c-0.53334,0.199997 -2.633331,1.199997 -6.300003,3c-3.666672,1.866669 -5.5,3.133331 -5.5,3.800003c0,0.666672 -0.833328,1.333328 -2.5,2c-1.666672,0.666672 -2.5,1.333344 -2.5,2c0,0.666656 -1.333328,1.733337 -4,3.200012c-2.666672,1.533325 -6,3.199982 -10,5c-4,1.866669 -6.066666,3.133331 -6.199997,3.799988l-0.300003,1l-0.300003,0l-0.199997,0l-0.5,0l-0.5,0l0,-0.200012l0,-0.299988l-1.5,-0.299988l-1.5,-0.200012l-0.199997,-1c-0.199997,-0.666656 -0.400009,-2.166656 -0.600006,-4.5c-0.133331,-2.333344 -0.699997,-3.433319 -1.699997,-3.299988c-1,0.199982 -1.566666,-0.266693 -1.699997,-1.400024l-0.300003,-1.799988l0.300003,-0.200012l0.199997,-0.299988l-1,-0.5l-1,-0.5l-0.199997,-0.300003c-0.199997,-0.133331 -0.53334,-0.366669 -1,-0.699997l-0.800003,-0.5l-0.199997,0l-0.300003,0l-0.300003,-1c-0.133331,-0.666672 0.300003,-1 1.300003,-1c1,0 2,-0.933334 3,-2.800003l1.5,-2.699997l0.199997,-0.300003l0.300003,-0.199997l0.300003,-0.199997l0.199997,-0.300003l0.199997,-0.300003l0.300003,-0.199997l0.300003,-0.199997l0.199997,-0.300003l-0.199997,-0.300003l-0.300003,-0.199997l-0.300003,-0.199997l-0.199997,-0.300003l0.199997,-0.300003l0.300003,-0.199997l0.5,-1l0.5,-1l0.300003,-1l0.199997,-1l9,-6.800003c6,-4.46666 13.166672,-8.699997 21.5,-12.699997c8.333328,-4 15.166672,-6.666672 20.5,-8c5.333328,-1.333328 11.666656,-1.833328 19,-1.5c7.333344,0.333328 13.5,1.166672 18.5,2.5c5,1.333328 15,2 30,2c15,0 23.333344,-0.333328 25,-1c1.666656,-0.666672 2.833344,-1.100006 3.5,-1.300003z"/>
  <path id="svg_15" fill="#FDF401" fill-rule="evenodd" stroke="#FDF401" stroke-width="0.5px" d="m630.5,188.199997l6.5,-0.199997l1,0.199997c0.666687,0.199997 0.333313,0.800003 -1,1.800003c-1.333313,1 1.333313,2.833328 8,5.5c6.666687,2.666672 12.266663,5.899994 16.799988,9.699997c4.466675,3.866669 6.799988,5.966675 7,6.300003l0.200012,0.5l0,0.199997c0,0.199997 0.166687,0.400009 0.5,0.600006l0.5,0.199997l0.200012,1l0.299988,1l0.5,1.5l0.5,1.5l0,0.5l0,0.5l-0.299988,0.199997l-0.200012,0.300003l-1,0.300003l-1,0.199997l0.200012,1l0.299988,1l0.299988,0.199997l0.200012,0.300003l-1,0.5l-1,0.5l0,0.300003l0,0.199997l-0.5,-0.199997l-0.5,-0.300003l-0.200012,-0.300003l-0.299988,-0.199997l-0.299988,-0.199997l-0.200012,-0.300003l-0.200012,-0.300003l-0.299988,-0.199997l-0.299988,-0.199997l-0.200012,-0.300003l-0.200012,-0.300003c-0.200012,-0.133331 -2.533325,-1.46666 -7,-4c-4.533325,-2.46666 -9.466675,-3.699997 -14.799988,-3.699997c-5.333313,0 -9.5,0.833328 -12.5,2.5l-4.5,2.5l-0.200012,0.300003l-0.299988,0.199997l-0.299988,0.199997l-0.200012,0.300003l-0.200012,0.300003l-0.299988,0.199997l-0.5,1l-0.5,1l-0.299988,0.199997l-0.200012,0.300003l-0.200012,0.300003l-0.299988,0.199997l-0.299988,0.199997l-0.200012,0.300003l-0.200012,0.300003l-0.299988,0.199997l0,1.5l0,1.5l0.299988,0.199997l0.200012,0.300003l0.200012,0.300003l0.299988,0.199997l0.299988,0.199997l0.200012,0.300003l0.200012,0.300003l0.299988,0.199997l0.299988,0.199997l0.200012,0.300003l1,0.5l1,0.5l1,0l1,0l3.5,-1.5c2.333313,-1 4.5,-1.666672 6.5,-2l3,-0.5l1,0l1,0l-0.200012,0.300003l-0.299988,0.199997l-0.299988,0.199997l-0.200012,0.300003l-0.200012,0.300003l-0.299988,0.199997l-0.299988,0.199997l-0.200012,0.300003l-0.200012,0.300003l-0.299988,0.199997l-0.299988,0.199997l-0.200012,0.300003l-0.200012,0.300003l-0.299988,0.199997l-0.299988,0.199997l-0.200012,0.300003l-0.200012,0.300003l-0.299988,0.199997l-0.299988,0.199997l-0.200012,0.300003l-0.200012,0.300003l-0.299988,0.199997l-0.299988,0.199997l-0.200012,0.300003l-0.200012,0.300003c-0.200012,0.133331 -1.866638,1.800003 -5,5l-4.799988,4.699997l-1,0.5l-1,0.5l-0.200012,0.300003l-0.299988,0.199997l-0.299988,0.199997l-0.200012,0.300003l-0.200012,0.300003l-0.299988,0.199997l-0.299988,0.199997l-0.200012,0.300003l-0.200012,0.300003l-0.299988,0.199997l-0.299988,0.199997l-0.200012,0.300003l-0.200012,0.300003l-0.299988,0.199997l-0.299988,0.199997l-0.200012,0.300003l-0.200012,0.300003l-0.299988,0.199997l-0.299988,0l-0.200012,0l0.200012,-1l0.299988,-1l0.299988,-0.199997l0.200012,-0.300003l0.200012,-0.300003l0.299988,-0.199997l0.5,-1l0.5,-1l0.5,-1c0.333313,-0.666672 0.666687,-1.5 1,-2.5c0.333313,-1 -0.599976,-1.833328 -2.799988,-2.5c-2.133362,-0.666672 -3.266663,-1.666672 -3.400024,-3c-0.200012,-1.333328 -0.733337,-2.333328 -1.599976,-3l-1.200012,-1l-0.200012,-1c-0.200012,-0.666672 -0.866638,-1.399994 -2,-2.199997c-1.200012,-0.866669 -2.06665,-1.066666 -2.599976,-0.600006c-0.466675,0.53334 -1.466675,-0.199997 -3,-2.199997l-2.200012,-3l-0.200012,-1l-0.299988,-1l-0.299988,-0.199997l-0.200012,-0.300003l-0.200012,-0.300003l-0.299988,-0.199997l-0.299988,-0.199997c-0.133362,-0.199997 -2.700012,-2.53334 -7.700012,-7c-5,-4.53334 -7.5,-7.133331 -7.5,-7.800003c0,-0.666672 -1.733337,-2.333328 -5.200012,-5c-3.533325,-2.666672 -11.06665,-7.733337 -22.599976,-15.199997c-11.466675,-7.53334 -18.133362,-12.066666 -20,-13.600006l-2.700012,-2.199997l-0.299988,-0.199997l-0.200012,-0.300003l-1,-0.300003l-1,-0.199997l-0.200012,0c-0.200012,0 -0.633301,-0.666672 -1.299988,-2c-0.666687,-1.333328 -1.43335,-2.399994 -2.299988,-3.199997l-1.200012,-1.300003l-3.5,-0.300003l-3.5,-0.199997l0,-1l0,-1l11.200012,-1c7.533325,-0.666672 11.06665,-1.266663 10.599976,-1.800003c-0.533325,-0.46666 1.533325,-0.533325 6.200012,-0.199997c4.666687,0.333328 12.333313,4 23,11c10.666687,7 19.166687,13 25.5,18c6.333313,5 10.43335,7.733337 12.299988,8.199997c1.799988,0.53334 3.799988,0.53334 6,0c2.133362,-0.46666 3.700012,-1.033325 4.700012,-1.699997c1,-0.666672 3.666687,-1.100006 8,-1.300003zm-13.299988,4.600006c-0.133362,-0.199997 -0.133362,-0.400009 0,-0.600006c0.200012,-0.133331 0.299988,-0.033325 0.299988,0.300003c0,0.333328 -0.099976,0.433334 -0.299988,0.300003z"/>
  <path id="svg_16" fill="#FDE500" fill-rule="evenodd" stroke="#FDE500" stroke-width="0.5px" d="m603.5,152.800003l0.5,0.199997l0,0.199997c0,0.199997 0.166687,0.400009 0.5,0.600006l0.5,0.199997l0.200012,0.5c0.200012,0.333328 0.466675,1 0.799988,2l0.5,1.5l0.5,1l0.5,1l0.299988,0.199997l0.200012,0.300003l1,0.300003c0.666687,0.133331 1,0.533325 1,1.199997c0,0.666672 0.333313,1 1,1c0.666687,0 1.833313,1.066666 3.5,3.199997c1.666687,2.199997 2.833313,3.400009 3.5,3.600006c0.666687,0.133331 2.333313,1.800003 5,5c2.666687,3.133331 4.666687,5.199997 6,6.199997c1.333313,1 2.06665,1.600006 2.200012,1.800003l0.299988,0.199997l0.299988,0.199997l0.200012,0.300003l1,0.5l1,0.5l-0.200012,0.300003l-0.299988,0.199997l-0.299988,0.199997l-0.200012,0.300003l1,0.5l1,0.5l1,0.5l1,0.5l0,0.300003l0,0.199997l-6.5,0.199997c-4.333313,0.199997 -7.333313,0.966675 -9,2.300003c-1.666687,1.333328 -4.166687,1.666672 -7.5,1c-3.333313,-0.666672 -8.166687,-3.5 -14.5,-8.5c-6.333313,-5 -14.833313,-11 -25.5,-18c-10.666687,-7 -18.333313,-10.666672 -23,-11c-4.666687,-0.333328 -6.733337,-0.266663 -6.200012,0.199997c0.466675,0.53334 -3.06665,1.133331 -10.599976,1.800003l-11.200012,1l-1,-0.199997c-0.666687,-0.199997 -4.833313,-0.53334 -12.5,-1l-11.5,-0.800003l-0.5,0.199997c-0.333344,0.199997 -1.833344,0.633331 -4.5,1.300003c-2.666656,0.666672 -8.166656,3.5 -16.5,8.5c-8.333344,5 -16.166656,9.333328 -23.5,13c-7.333344,3.666672 -15.333344,6.066666 -24,7.199997l-13,1.800003l-1.5,0l-1.5,0l0,-1l0,-1l2,-0.199997l2,-0.300003l5.5,-2c3.666656,-1.333328 8.233337,-4.233337 13.700012,-8.699997c5.533325,-4.53334 11.199982,-10.199997 17,-17c5.866669,-6.866669 11.799988,-12.300003 17.799988,-16.300003c6,-4 11.833344,-6.666672 17.5,-8c5.666656,-1.333328 14.666656,-2 27,-2c12.333313,0 24.166687,1.333328 35.5,4c11.333313,2.666672 21,5.5 29,8.5c8,3 13.833313,5.333328 17.5,7c3.666687,1.666672 5.666687,2.600006 6,2.800003zm14.700012,38c-0.133362,-0.199997 -0.133362,-0.400009 0,-0.600006c0.200012,-0.133331 0.299988,-0.033325 0.299988,0.300003c0,0.333328 -0.099976,0.433334 -0.299988,0.300003z"/>
  <path id="svg_17" fill="#FDFDFC" fill-rule="evenodd" stroke="#FDFDFC" stroke-width="0.5px" d="m601.799988,514l12.200012,-16l1.200012,5.5c0.866638,3.666656 1.133301,9.166687 0.799988,16.5c-0.333313,7.333313 -1.166687,12.666687 -2.5,16c-1.333313,3.333313 -2.166687,5.5 -2.5,6.5l-0.5,1.5l-0.5,1l-0.5,1l-0.299988,0.200012l-0.200012,0.299988l-1,0l-1,0l-0.200012,-0.299988l-0.299988,-0.200012l-0.299988,-0.200012l-0.200012,-0.299988l-0.200012,-0.299988l-0.299988,-0.200012l-0.299988,-0.200012c-0.133362,-0.200012 -0.466675,-0.533325 -1,-1c-0.466675,-0.533325 -3.266663,-2.399963 -8.400024,-5.599976l-7.799988,-4.700012l-0.200012,-0.299988l-0.299988,-0.200012l-0.299988,0l-0.200012,0l0,-0.200012l0,-0.299988l0.200012,-0.299988l0.299988,-0.200012l0.299988,-0.200012l0.200012,-0.299988l0.200012,-0.299988l0.299988,-0.200012l0.299988,-0.200012l0.200012,-0.299988l0.200012,-0.299988c0.200012,-0.133362 4.399963,-5.533325 12.599976,-16.200012z"/>
  <path id="svg_18" fill="#FEFEB3" fill-rule="evenodd" stroke="#FEFEB3" stroke-width="0.5px" d="m487,298.200012l0,-0.200012l16.5,1c11,0.666656 16.5,1.600006 16.5,2.799988c0,1.133331 1.06665,2.466675 3.200012,4c2.200012,1.466675 3.633301,3.533356 4.299988,6.200012c0.666687,2.666656 0.233337,4.733337 -1.299988,6.200012c-1.466675,1.533325 -2.600037,2.533325 -3.400024,3c-0.866638,0.533325 -1.399963,0.866669 -1.599976,1l-0.200012,0.299988l-0.200012,0.299988l-0.299988,0.200012l-0.299988,0.200012l-0.200012,0.299988l-1.5,0.5l-1.5,0.5l-0.200012,0.299988l-0.299988,0.200012l-0.5,1l-0.5,1l-0.299988,0.200012l-0.200012,0.299988l0,0.299988l0,0.200012l0,0.200012c0,0.199982 -4.333344,1.733307 -13,4.599976l-13,4.200012l-1.5,0.200012c-1,0.199982 -4.5,1.133331 -10.5,2.799988c-6,1.666656 -14.166656,3.399994 -24.5,5.200012l-15.5,2.799988l0,-0.200012l0,-0.299988l-4,-0.5l-4,-0.5l-1,-0.5c-0.666656,-0.333344 -7.333344,-0.333344 -20,0c-12.666656,0.333344 -21.733337,-0.066681 -27.200012,-1.200012l-8.299988,-1.799988l-0.299988,-0.200012l-0.200012,-0.299988l1.5,-0.299988c1,-0.133331 1.333344,-0.600006 1,-1.400024c-0.333344,-0.866669 -0.899994,-2.399994 -1.700012,-4.599976c-0.866669,-2.133331 -0.799988,-4.033356 0.200012,-5.700012c1,-1.666656 4.266663,-5 9.799988,-10l8.200012,-7.5l0.200012,0c0.199982,0 0.399994,-0.166656 0.599976,-0.5l0.200012,-0.5l5,-1.200012c3.333344,-0.866669 12,-1.966644 26,-3.299988c14,-1.333344 26.5,-2.666656 37.5,-4c11,-1.333344 17.5,-2.166656 19.5,-2.5l3,-0.5l1,-0.5l1,-0.5l1,-0.5l1,-0.5l0,-0.299988z"/>
  <path id="svg_19" fill="#0A0903" fill-rule="evenodd" stroke="#0A0903" stroke-width="0.5px" d="m567,118.800003l1,0.199997l0,0.199997c0,0.200005 0.166687,0.400002 0.5,0.600006l0.5,0.199997l9.799988,5c6.466675,3.333328 10.799988,5.733337 13,7.199997c2.133362,1.53334 3.266663,2.400009 3.400024,2.600006l0.299988,0.199997l0.299988,0.199997l0.200012,0.300003l1,0.300003l1,0.199997l0,0.199997c0,0.199997 0.166687,0.400009 0.5,0.600006l0.5,0.199997l0,0.199997c0,0.199997 0.166687,0.400009 0.5,0.600006l0.5,0.199997l0.200012,0l0.299988,0l5.5,6c3.666687,4 5.666687,6.333328 6,7l0.5,1l0.299988,0.199997l0.200012,0.300003l0.200012,0.300003l0.299988,0.199997l0.299988,0.199997l0.200012,0.300003l0.200012,0.300003l0.299988,0.199997l0.299988,0.199997l0.200012,0.300003l0.200012,0.300003l0.299988,0.199997l0.5,1l0.5,1l0.299988,0.199997l0.200012,0.300003l0.200012,0.300003l0.299988,0.199997l0.299988,0.199997l0.200012,0.300003l-1,0l-1,0l-1,-0.5l-1,-0.5l-1,-0.5l-1,-0.5l-1.5,-0.5c-1,-0.333328 -1.833313,-0.666672 -2.5,-1l-1,-0.5l-1,-0.300003l-1,-0.199997l-0.200012,-0.5c-0.200012,-0.333328 -0.399963,-0.5 -0.599976,-0.5l-0.200012,0l-0.5,-0.199997c-0.333313,-0.199997 -2.333313,-1.133331 -6,-2.800003c-3.666687,-1.666672 -9.5,-4 -17.5,-7c-8,-3 -17.666687,-5.833328 -29,-8.5c-11.333313,-2.666672 -23.166687,-4 -35.5,-4c-12.333344,0 -21.333344,0.666672 -27,2c-5.666656,1.333328 -11.5,4 -17.5,8c-6,4 -11.933319,9.433334 -17.799988,16.300003c-5.800018,6.800003 -11.466675,12.46666 -17,17c-5.466675,4.46666 -10.033356,7.366669 -13.700012,8.699997l-5.5,2l-2,0.300003l-2,0.199997l0,1l0,1l1.5,0l1.5,0l0,0.199997c0,0.199997 -1.166656,0.800003 -3.5,1.800003l-3.5,1.5l-1.5,0.5l-1.5,0.5l-3,0l-3,0l0.200012,-0.300003l0.299988,-0.199997l0.299988,-0.199997l0.200012,-0.300003l1,-0.5l1,-0.5l1,-0.5l1,-0.5l1,-0.5l1,-0.5l4.200012,-5.300003c2.866669,-3.46666 5.466644,-7.866669 7.799988,-13.199997c2.333344,-5.333328 3.600006,-8.166672 3.799988,-8.5l0.200012,-0.5l0.200012,0l0.299988,0l0.5,-1l0.5,-1l6.299988,-7.800003c4.133331,-5.133331 9.200012,-10.199997 15.200012,-15.199997c6,-5 12.666656,-9.333344 20,-13c7.333344,-3.666656 14.5,-6.5 21.5,-8.5c7,-2 17.5,-2.833344 31.5,-2.5c14,0.333344 25.333313,1.666656 34,4c8.666687,2.333344 13.333313,3.599998 14,3.800003z"/>
  <path id="svg_20" fill="#090802" fill-rule="evenodd" stroke="#090802" stroke-width="0.5px" d="m252.5,190.199997l12.5,-2.199997l16,1.800003c10.666656,1.133331 20.266663,3.266663 28.799988,6.399994c8.466675,3.199997 14.93335,6.066666 19.400024,8.600006c4.533325,2.46666 7.633331,3.866669 9.299988,4.199997c1.666656,0.333328 3.666656,0.5 6,0.5l3.5,0l2.5,0l2.5,0l-1,0.5l-1,0.5l-1.5,0.5l-1.5,0.5l-1.5,0.5l-1.5,0.5l-0.200012,0.300003l-0.299988,0.199997l-0.299988,-0.199997l-0.200012,-0.300003l-0.200012,-0.300003c-0.199982,-0.133331 -0.399994,-0.199997 -0.599976,-0.199997l-0.200012,0l-0.5,0.199997c-0.333344,0.199997 -0.5,0.400009 -0.5,0.600006l0,0.199997l-1.5,0.199997c-1,0.199997 -2,0.466675 -3,0.800003c-1,0.333328 -9,0.5 -24,0.5c-15,0 -25,-0.666672 -30,-2c-5,-1.333328 -11.166656,-2.166672 -18.5,-2.5c-7.333344,-0.333328 -13.666672,0.166672 -19,1.5c-5.333328,1.333328 -12.166672,4 -20.5,8c-8.333328,4 -15.5,8.233337 -21.5,12.699997l-9,6.800003l-0.199997,0l-0.300003,0l-0.300003,0.199997l-0.199997,0.300003l-0.199997,0.300003l-0.300003,0.199997l-0.300003,0.199997l-0.199997,0.300003l-1,0.5l-1,0.5l-0.199997,0.300003l-0.300003,0.199997l-0.300003,0.199997l-0.199997,0.300003l-0.199997,0.300003l-0.300003,0.199997l-0.300003,0.199997l-0.199997,0.300003l-0.199997,0.300003l-0.300003,0.199997l-10.5,10.5c-7,7 -15.5,17 -25.5,30c-10,13 -15.5,20.333344 -16.5,22c-1,1.666656 -1.666672,2.833344 -2,3.5l-0.5,1l-0.5,1l-0.5,1l-0.5,1l-0.5,1l-0.5,1l-0.5,1l-0.300003,0.200012l-0.199997,0.299988l-0.199997,0.299988l-0.300003,0.200012l0,-1.5l0,-1.5l0.5,-3l0.5,-3l0.5,-3c0.333328,-2 1.333328,-5.5 3,-10.5c1.666672,-5 4.666672,-12.166656 9,-21.5c4.333328,-9.333344 10.266663,-18.833328 17.800003,-28.5c7.46666,-9.666672 14.133331,-16.666672 20,-21c5.800003,-4.333328 11.533325,-8.5 17.199997,-12.5c5.666672,-4 14.066666,-8.266663 25.199997,-12.800003c11.199997,-4.46666 20.966675,-7.46666 29.300003,-9z"/>
  <path id="svg_21" fill="#FDFD0E" fill-rule="evenodd" stroke="#FDFD0E" stroke-width="0.5px" d="m615.200012,231l-0.200012,-1l1.200012,1c0.866638,0.666672 1.399963,1.666672 1.599976,3c0.133362,1.333328 1.266663,2.333328 3.400024,3c2.200012,0.666672 3.133301,1.5 2.799988,2.5c-0.333313,1 -0.666687,1.833328 -1,2.5l-0.5,1l-0.5,1l-0.5,1l-0.299988,0.199997l-0.200012,0.300003l-0.200012,0.300003l-0.299988,0.199997l-0.299988,1l-0.200012,1l-0.200012,0.5c-0.200012,0.333328 -12.799988,11.166656 -37.799988,32.5c-25,21.333344 -41.266663,34.066681 -48.799988,38.200012l-11.200012,6.299988l-1,0.5l-1,0.5l-1,0.5l-1,0.5l-1.5,0.299988l-1.5,0.200012l0,-0.200012l0,-0.299988l0.200012,-0.299988l0.299988,-0.200012l0.5,-1l0.5,-1l0.299988,-0.200012l0.200012,-0.299988l1.5,-0.5l1.5,-0.5l0.200012,-0.299988l0.299988,-0.200012l0.299988,-0.200012l0.200012,-0.299988l0.200012,-0.299988c0.200012,-0.133331 0.733337,-0.466675 1.599976,-1c0.799988,-0.466675 1.93335,-1.466675 3.400024,-3c1.533325,-1.466675 1.966675,-3.533356 1.299988,-6.200012c-0.666687,-2.666656 -2.099976,-4.733337 -4.299988,-6.200012c-2.133362,-1.533325 -3.200012,-2.866669 -3.200012,-4c0,-1.199982 -5.5,-2.133331 -16.5,-2.799988l-16.5,-1l-3.5,-0.200012l-3.5,-0.299988l-3,-0.5l-3,-0.5l-2.5,-0.5l-2.5,-0.5l3,-0.5c2,-0.333344 3.833344,-0.666656 5.5,-1l2.5,-0.5l-1.5,-0.5c-1,-0.333344 -2.333344,-0.833344 -4,-1.5l-2.5,-1l1,-0.5l1,-0.5l0.200012,-0.299988l0.299988,-0.200012l0.299988,-0.200012l0.200012,-0.299988l2,-0.5c1.333344,-0.333344 3.666656,-0.666656 7,-1l5,-0.5l1.5,-0.5l1.5,-0.5l-0.200012,-0.299988l-0.299988,-0.200012l-0.299988,-0.200012l-0.200012,-0.299988l-2.5,-0.5c-1.666656,-0.333344 -3.166656,-0.666656 -4.5,-1l-2,-0.5l-3,-0.5l-3,-0.5l4.5,-0.5l4.5,-0.5l28.5,-1.5c19,-1 33,-1.666656 42,-2c9,-0.333344 13.833313,-0.666656 14.5,-1l1,-0.5l0.200012,-0.299988l0.299988,-0.200012l0.299988,-0.200012l0.200012,-0.299988l1,-0.299988l1,-0.200012l0,1c0,0.666656 -0.333313,1 -1,1c-0.666687,0 -1.166687,0.399994 -1.5,1.200012l-0.5,1.299988l1.5,0l1.5,0l0.200012,-0.299988l0.299988,-0.200012l0.299988,-0.200012l0.200012,-0.299988l6.799988,-5.299988c4.466675,-3.466675 7.799988,-6.033356 10,-7.700012c2.133362,-1.666656 4.200012,-3.766663 6.200012,-6.299988c2,-2.466675 3.93335,-4.266678 5.799988,-5.400009c1.799988,-1.199997 2.799988,-2.300003 3,-3.300003c0.133362,-1 1.466675,-2.166672 4,-3.5c2.466675,-1.333328 3.866699,-4 4.200012,-8c0.333313,-4 0.400024,-6.333328 0.200012,-7z"/>
  <path id="svg_22" fill="#FEFA57" fill-rule="evenodd" stroke="#FEFA57" stroke-width="0.5px" d="m196,333l-0.5,2l-0.5,1l-0.5,1l-0.300003,0.5l-0.199997,0.5l-5.800003,4.5c-3.800003,3 -6.699997,6 -8.699997,9c-2,3 -3.166672,5.333344 -3.5,7c-0.333328,1.666656 -0.600006,2.666656 -0.800003,3l-0.199997,0.5l-0.199997,0l-0.300003,0l-0.5,-1l-0.5,-1l-0.300003,-0.200012l-0.199997,-0.299988l-0.199997,-0.299988l-0.300003,-0.200012l-0.300003,0.200012l-0.199997,0.299988l-0.199997,0.299988l-0.300003,0.200012l-0.300003,1.5c-0.133331,1 -1.199997,1.766663 -3.199997,2.299988c-2,0.466675 -5.333328,0.366669 -10,-0.299988c-4.666672,-0.666656 -7.933334,-2.433319 -9.800003,-5.299988c-1.800003,-2.800018 -2.866669,-6.200012 -3.199997,-10.200012c-0.333328,-4 0.166672,-8.166656 1.5,-12.5c1.333328,-4.333344 4.100006,-9.833344 8.300003,-16.5l6.199997,-10l0.5,-0.200012l0.5,-0.299988l1,-0.299988l1,-0.200012l0,-1l0,-1l1,-0.200012l1,-0.299988l1,-0.5l1,-0.5l6.5,-4c4.333328,-2.666656 8.233337,-3.766663 11.699997,-3.299988c3.53334,0.533325 6.633331,2.299988 9.300003,5.299988c2.666672,3 3.833328,7.833344 3.5,14.5c-0.333328,6.666656 -0.833328,10.666656 -1.5,12c-0.666672,1.333344 -1.166672,2.666656 -1.5,4z"/>
  <path id="svg_23" fill="#FDFB39" fill-rule="evenodd" stroke="#FDFB39" stroke-width="0.5px" d="m387.200012,312.200012l-0.200012,0.299988l1.5,0c1,0 1.833344,-0.100006 2.5,-0.299988l1,-0.200012l0,1c0,0.666656 -2,2.399994 -6,5.200012c-4,2.866669 -6.933319,5.199982 -8.799988,7c-1.800018,1.866669 -3.200012,3.633331 -4.200012,5.299988c-1,1.666656 -1.066681,3.566681 -0.200012,5.700012c0.800018,2.199982 1.366669,3.733307 1.700012,4.599976c0.333344,0.800018 0,1.266693 -1,1.400024l-1.5,0.299988l0.200012,0.299988l0.299988,0.200012l8.299988,1.799988c5.466675,1.133331 14.533356,1.533356 27.200012,1.200012c12.666656,-0.333344 19.333344,-0.333344 20,0l1,0.5l4,0.5l4,0.5l0,0.299988l0,0.200012l-1,0.200012l-1,0.299988l-4,0.5c-2.666656,0.333344 -9,1.166656 -19,2.5c-10,1.333344 -31.333344,2.433319 -64,3.299988l-49,1.200012l0.200012,-0.5l0.299988,-0.5l0.299988,-0.200012l0.200012,-0.299988l0.200012,-0.299988l0.299988,-0.200012l0.5,-1l0.5,-1l2.700012,-7.799988c1.866669,-5.133331 4.966644,-9.533356 9.299988,-13.200012c4.333344,-3.666656 14,-8.666656 29,-15c15,-6.333344 25.666656,-9.5 32,-9.5c6.333344,0 10.433319,0.233337 12.299988,0.700012c1.800018,0.533325 2.366669,1.299988 1.700012,2.299988c-0.666656,1 -1,1.666656 -1,2c0,0.333344 -0.100006,0.566681 -0.299988,0.700012zm-23,-3.400024c-0.133331,-0.199982 -0.133331,-0.399994 0,-0.599976c0.199982,-0.133331 0.299988,-0.033356 0.299988,0.299988c0,0.333344 -0.100006,0.433319 -0.299988,0.299988zm-8,3c-0.133331,-0.199982 -0.133331,-0.399994 0,-0.599976c0.199982,-0.133331 0.299988,-0.033356 0.299988,0.299988c0,0.333344 -0.100006,0.433319 -0.299988,0.299988zm-5,2c-0.133331,-0.199982 -0.133331,-0.399994 0,-0.599976c0.199982,-0.133331 0.299988,-0.033356 0.299988,0.299988c0,0.333344 -0.100006,0.433319 -0.299988,0.299988z"/>
  <path id="svg_24" fill="#FEFE57" fill-rule="evenodd" stroke="#FEFE57" stroke-width="0.5px" d="m267,234.199997l4,-0.199997l1.5,0.199997l1.5,0.300003l1,0.5c0.666656,0.333328 1.833344,0.933334 3.5,1.800003c1.666656,0.800003 2.566681,2.866669 2.700012,6.199997c0.199982,3.333328 -0.533356,6.166672 -2.200012,8.5c-1.666656,2.333328 -4.733337,4.899994 -9.200012,7.700012c-4.533325,2.866669 -9.633331,4.466644 -15.299988,4.799988c-5.666672,0.333344 -9.166672,0.166656 -10.5,-0.5l-2,-1l-0.199997,-0.299988l-0.300003,-0.200012l-0.300003,-0.200012l-0.199997,-0.299988l-0.199997,-0.299988l-0.300003,-0.200012l-0.300003,-1l-0.199997,-1l-1,0l-1,0l0.199997,-2l0.300003,-2l0.5,-2c0.333328,-1.333328 1,-2.833328 2,-4.5l1.5,-2.5l0.300003,-0.199997l0.199997,-0.300003l0.199997,-0.300003l0.300003,-0.199997l0.5,-1l0.5,-1l0.300003,-0.199997l0.199997,-0.300003l0.199997,-0.300003l0.300003,-0.199997l0.300003,-0.5l0.199997,-0.5l6.5,-2.800003c4.333344,-1.800003 7.166656,-2.866669 8.5,-3.199997c1.333344,-0.333328 3.333344,-0.600006 6,-0.800003z"/>
  <path id="svg_25" fill="#FEFE45" fill-rule="evenodd" stroke="#FEFE45" stroke-width="0.5px" d="m498,156l0,-1l11.5,0.800003c7.666687,0.46666 11.833313,0.800003 12.5,1l1,0.199997l0,1l0,1l3.5,0.199997l3.5,0.300003l1.200012,1.300003c0.866638,0.800003 1.633301,1.866669 2.299988,3.199997c0.666687,1.333328 1.099976,2 1.299988,2l0.200012,0l-0.200012,4c-0.200012,2.666672 -0.399963,4.5 -0.599976,5.5c-0.133362,1 -0.866699,1.433334 -2.200012,1.300003c-1.333313,-0.199997 -3.333313,1.033325 -6,3.699997c-2.666687,2.666672 -5.833313,4.100006 -9.5,4.300003c-3.666687,0.133331 -5.5,-0.133331 -5.5,-0.800003c0,-0.666672 -1.399994,-1.666672 -4.200012,-3c-2.866669,-1.333328 -4.133331,-2.333328 -3.799988,-3c0.333344,-0.666672 -0.733337,-1.733337 -3.200012,-3.199997c-2.533325,-1.53334 -4.06665,-2.866669 -4.599976,-4l-0.700012,-1.800003l-0.299988,-1.5c-0.133331,-1 0.299988,-1.5 1.299988,-1.5c1,0 1.666656,-0.933334 2,-2.800003c0.333344,-1.800003 1.166656,-2.866669 2.5,-3.199997l2,-0.5l1.5,-0.5l1.5,-0.5l-1,-0.5c-0.666656,-0.333328 -1.833344,-0.600006 -3.5,-0.800003c-1.666656,-0.133331 -2.5,-0.533325 -2.5,-1.199997zm21.200012,27.800003c-0.133362,-0.199997 -0.133362,-0.400009 0,-0.600006c0.200012,-0.133331 0.299988,-0.033325 0.299988,0.300003c0,0.333328 -0.099976,0.433334 -0.299988,0.300003z"/>
 </g>
</svg>